<svg width="391" height="179" viewBox="0 0 391 179" fill="none" xmlns="http://www.w3.org/2000/svg">
<path d="M180.478 110.075L180.51 109.162H175.936L175.846 109.457L174.448 112.479C174.125 113.8 173.58 114.945 171.507 116.036L170.447 114.492L169.655 115.123C168.18 116.48 167.295 119.527 167.06 121.007C162.526 121.572 159.358 126.435 157.247 129.825C156.492 131.037 155.55 132.565 155.134 132.751C152.406 134.028 150.798 134.048 149.844 134.057L148.64 134.218L144.348 136.47L141.811 137.484L140.816 137.553L140.678 137.585L140.116 136.816C141.235 135.026 142.885 130.625 145.079 124.554C146.206 121.443 147.472 117.918 147.835 117.429L148.001 117.191L148.171 116.884V113.183C148.3 111.032 155.239 92.163 159.64 90.294L160.312 90.005L160.158 89.279C160.012 88.634 159.787 87.21 159.787 85.824C159.787 84.971 159.867 84.126 160.113 83.498C161.007 81.148 165.008 79.044 166.474 78.436L167.02 78.209V71.504C167.95 70.362 168.766 68.277 169.76 65.541C171.183 61.633 172.945 56.763 175.313 55.062L175.826 54.702L175.652 54.102C175.649 54.07 175.184 52.4 175.184 50.509C175.184 48.916 175.515 47.167 176.736 46.132L177.058 45.869V20.638L176.195 18.453L175.685 17.302V9.38499L133.63 9.21899L133.776 10.237C133.909 11.118 133.113 12.567 132.58 13.277L132.402 13.507V26.829L134.026 28.136C136.104 30.257 134.589 35.936 133.833 37.949L133.744 38.175L134.124 38.957L134.294 39.88L134.415 40.803L135.215 45.794L135.523 46.02C136.622 46.806 136.574 47.109 136.493 47.705C136.335 48.72 136.323 49.736 137.823 51.132L138.609 51.869L139.216 50.885C141.333 47.446 142.052 46.286 142.052 45.302V34.186C142.052 32.697 145.528 30.999 146.647 30.999H147.537V30.114C147.537 24.499 150.774 22.892 153.373 21.593C153.373 21.593 154.764 20.677 155.414 20.255C155.769 20.265 168.604 20.393 170.148 20.404V29.182C167.865 31.35 166.244 33.628 164.854 35.635C163.516 37.574 162.356 39.252 160.921 40.29C160.133 41.891 159.891 43.67 159.891 45.269C159.891 47.425 160.28 48.977 160.465 49.63C156.266 53.599 155.268 55.794 155.074 56.733C154.608 57.088 151.695 59.336 151.695 59.336C149.193 63.151 146.53 76.506 146.417 77.077C141.802 81.884 141.203 85.497 140.872 87.435L140.678 88.352C140.67 88.308 137.368 92.078 135.886 94.996L134.519 100.084C134.273 101.645 134.05 103.115 133.413 103.571L133.098 103.79L133.041 104.327L132.427 109.181C131.998 111.566 131.522 114.188 131.522 116.613C131.522 117.393 131.57 118.153 131.68 118.873C131.849 119.205 132.613 120.231 132.613 121.561C132.613 122.236 132.419 122.984 131.845 123.764L131.316 124.466L132.047 125.012C132.637 125.452 134.285 128.905 134.423 129.575L134.464 130.594L133.421 131.354L133.066 131.622L133.042 132.082V140.577C132.056 141.498 130.997 142.581 130.997 143.172L131.708 144.86L132.759 146.194L133.252 146.271H143.565C145.056 147.762 147.813 148.409 148.139 148.473C149.813 148.494 150.467 147.56 150.937 146.881C151.465 146.125 151.882 145.523 153.458 145.523L154.787 145.443L154.985 145.381L155.947 146.817L156.546 147.019H172.105L172.364 146.598C173.125 145.373 176.43 144.056 177.109 144.052L178.026 144.031L177.981 143.122C177.48 134.078 177.302 124.018 177.892 122.843L179.084 120.653C179.387 119.715 179.545 119.239 180.575 118.964L181.545 118.701L181.161 117.767C180.442 116.055 180.422 111.634 180.478 110.075ZM238.965 138.004C238.965 136.581 238.205 135.668 237.547 134.856L236.496 133.474L236.015 133.405H229.553C229.168 132.997 227.609 131.308 227.609 131.308L227.04 132.346C224.821 135.939 223.14 136.61 220.811 137.543L215.634 140.235L213.44 141.027C211.581 141.592 209.27 142.279 207.961 143.698C206.869 144.87 206.679 146.268 206.538 147.295C206.385 148.431 206.304 148.567 206.036 148.616L203.143 148.923C201.535 149.21 200.261 149.425 198.709 148.682L198.022 148.354L197.452 149.219L196.866 150.079L196.304 149.642C196.538 149.024 197.496 146.523 197.496 146.523C197.888 145.766 198.785 143.52 198.785 142.061L198.74 141.782C199.81 140.315 203.032 134.569 203.658 130.342L203.667 123.115L207.732 111.614L207.78 96.143C208.25 94.215 209.09 93.371 209.975 92.477L211.842 89.763L211.886 84.851C213.769 82.77 214.578 79.769 215.216 77.045C215.685 75.054 216.174 72.997 216.998 72.409L217.361 72.157L217.778 58.552C217.693 58.11 217.661 57.695 217.661 57.302C217.661 55.853 218.158 54.711 218.748 53.342L220.024 49.63L221.476 41.072C221.552 39.682 221.973 39.417 222.602 39.015L224.195 37.127C224.398 36.436 224.458 35.6 224.458 34.81C224.458 33.709 224.35 32.87 224.276 32.381L225.08 31.615C227.005 29.794 227.646 29.182 228.309 26.725C228.496 26.034 228.547 25.21 228.547 24.432C228.547 23.252 228.438 22.339 228.373 21.908C230.847 19.334 231.998 16.503 232.794 14.395L234.044 11.698L234.161 11.314V9.28899L232.438 9.33499L232.37 9.35899L231.372 7.86199L230.879 7.83199L195.914 7.80399L184.573 7.83199H183.692L183.74 8.71499V33.573C182.423 34.818 181.668 35.943 181.668 36.871L182.052 38.877C182.222 39.429 182.384 39.97 182.384 40.691C182.384 41.411 182.222 42.308 181.729 43.591L181.506 44.167L184.205 46.493L185.026 45.847C185.696 44.76 186.125 44.78 186.837 44.808C189.351 44.93 190.627 43.604 192.005 35.161C193.384 26.757 195.654 23.761 196.281 23.678L197.748 23.373C199.227 22.971 201.709 22.288 202.832 23.417L203.858 24.866L204.489 25.159H211.29L211.691 25.601L211.811 25.706L211.82 25.759C211.82 25.937 211.715 26.277 210.866 26.861L210.473 27.13L210.457 27.611V32.101C206.598 35.987 200.858 48.869 200.858 50.206V54.171C200.587 56.644 199.076 59.285 197.986 61.215L196.768 63.792L196.745 65.13L196.761 66.13C196.761 68.127 194.967 69.935 194.948 69.951L194.72 70.184L194.635 71.243L194.737 72.728L195.735 73.956L196.058 74.28L187.899 95.831C187.782 96.315 186.513 102.651 186.513 109.368C186.513 112.868 186.86 116.461 187.891 119.391L188.639 120.821L189.212 122.446C189.224 122.592 189.705 125.347 189.705 128.205C189.705 129.616 189.592 131.038 189.244 132.186L188.38 134.295L187.838 135.777C188.105 136.626 188.307 137.641 188.307 138.465C188.307 138.982 188.222 139.41 188.024 139.673L186.755 140.744L186.492 141.559C186.625 142.061 186.836 143.144 186.836 144.163C186.836 144.757 186.763 145.335 186.561 145.751L184.723 147.59L183.558 148.406L183.789 149.028C183.99 149.627 184.249 150.721 184.249 151.664C184.249 152.213 184.16 152.715 183.93 153.001L182.754 153.995L182.365 154.674V159.86L182.285 160.628C182.228 161.057 182.151 161.591 182.151 162.172C182.151 163.308 182.43 164.674 183.619 165.959L183.881 166.245H184.269C186.153 166.245 188.38 165.291 190.166 164.52L192.327 163.687L196.275 163.602L203.315 163.449C205.409 162.774 207.462 161.38 208.759 159.998C209.421 160.062 215.706 160.741 215.706 160.741L215.617 160.846L216.061 161.78L216.336 162.172L216.824 162.221H237.549L237.61 160.483L238.584 159.829L238.936 159.561L238.96 159.109V146.525L238.387 144.872L237.586 142.071C237.586 140.228 238.07 139.63 238.414 139.193L238.965 138.004ZM97.6949 14.45C98.2849 15.291 98.895 15.414 100.475 15.445C100.989 16.453 102.027 17.021 103.085 17.326C104.606 17.771 105.628 18.142 105.919 19.256V19.26L107.652 48.725L107.676 49.212L108.953 49.895C108.577 50.148 107.595 50.847 107.595 50.847L107.652 51.265L108.096 109.618C106.916 111.09 106.274 113.741 106.274 115.341L107.215 118.623L107.652 119.795L107.705 121.169L106.323 122.3L106.274 122.761C106.274 122.785 106.282 123.174 106.282 123.817C106.282 127.247 106.181 138.034 105.122 141.303L104.638 141.643L101.28 144.581L98.439 148.433L99.0969 149.06L100.1 149.968L101.316 150.689C101.938 151.48 102.933 150.671 105.317 148.299C107.483 147.434 119.381 147.026 120.762 147.951L121.117 148.181L121.642 147.999L123.647 147.364C124.1 147.506 124.642 147.498 124.642 147.498L128.133 148.1L128.141 146.945L127.539 142.632L121.004 138.441C118.781 137.181 118.733 137.157 118.078 134.404L117.815 133.415C117.367 131.79 117.164 130.894 117.908 129.979L119.104 128.99L119.468 128.38L120.202 118.183L119.92 117.835C119.475 117.257 118.134 113.387 118.101 112.747L117.237 106.746C116.974 105.805 116.78 105.093 116.78 104.454C116.78 103.702 117.059 103.057 117.851 102.264L119.415 101.004L119.468 100.648V94.804L119.145 94.311L118.966 92.04L118.873 90.341L118.534 85.72L118.542 85.413C118.542 84.891 118.481 84.105 118.481 84.105C118.404 83.488 118.323 82.747 118.323 81.989C118.323 80.847 118.521 79.689 119.236 78.895L120.857 77.603L120.841 77.04L120.169 73.245L119.862 72.752L119.514 71.136C119.368 70.197 119.143 69.459 118.786 68.897C119.234 65.892 119.4 61.402 119.4 56.443C119.4 50.357 119.174 43.652 118.996 38.401L118.778 30.144C118.778 29.73 118.915 29.606 119.377 29.247C119.966 28.792 120.847 28.109 120.847 26.44C120.847 24.843 120.569 24.148 119.737 23.708L119.466 21.997C119.466 19.43 122.965 16.679 126.101 15.809L126.747 15.631V12.421L125.976 11.489L124.517 9.53099L123.846 9.67999C121.494 10.557 101.53 10.537 98.3979 9.65599L97.812 9.49799L97.3829 10.08L95.621 12.44L96.267 13.076L97.6949 14.45ZM270.058 82.555L270.098 82.022L270.474 74.283V73.828L270.107 73.567C269.254 72.951 269.064 72.648 269.064 72.328L269.105 71.973L269.217 71.117C269.217 70.385 268.821 69.516 267.746 68.415V62.373L266.381 61.291L261.995 44.342C260.581 40.708 257.008 30.908 257.008 27.974V23.902L256.221 22.059C255.558 21.261 254.338 19.788 252.139 15.009L251.88 13.568C251.54 11.053 250.91 6.34999 247.22 6.34999L244.925 7.19899C244.016 8.11099 243.899 9.51199 243.899 10.962L243.915 12.336C243.915 14.391 243.705 15.125 242.771 15.244C242.391 15.381 240.379 17.426 240.379 17.426L239.263 18.631L239.134 19.089V24.745C238.685 25.348 237.065 27.532 237.065 27.532L236.496 28.657C235.019 31.318 233.783 35.497 233.545 36.33L233.29 36.508L232.232 37.435C231.771 38.035 231.622 38.631 231.622 39.185C231.622 39.719 231.755 40.215 231.876 40.663L232.063 42.514C230.765 43.846 229.873 45.717 228.966 47.752L228.361 49.098C227.254 51.527 227.04 54.267 226.853 56.679C226.643 59.567 226.45 62.058 224.844 63.002L224.404 63.267V63.768C224.404 68.025 222.901 71.279 222.884 71.313L221.846 72.98L220.246 76.068L220.115 79.619L220.067 83.363C219.736 85.573 220.326 86.323 221.312 86.761L221.409 86.789L221.417 86.872C221.417 87.618 221.292 87.771 220.432 88.38L220.051 88.636V94.586L219.906 94.698L218.89 95.563C218.196 96.372 217.965 97.51 217.965 98.638C217.965 100.331 218.449 101.852 218.636 102.416C218.345 103.188 217.941 105.027 217.315 110.491L217.262 110.976L217.848 111.416L218.685 112.091C218.676 112.309 217.836 112.766 217.319 113.053L214.514 115.324C213.439 117.176 213.249 120.174 213.224 120.99C212.724 121.548 208.044 126.867 208.044 126.867L208.403 127.457L209.271 129.292L210.642 132.751L211.402 132.322L225.336 127.36C226.783 126.952 232.894 127.154 236.645 127.4L237.203 127.436L237.574 126.68L238.891 124.272C239.336 123.69 239.716 123.206 239.716 122.68L239.635 122.291L239.546 122.033L238.718 121.547L237.017 120.319C236.394 119.713 235.654 119.191 234.842 118.883V111.702C234.818 111.516 234.228 109.734 233.816 108.505H235.764C236.665 109.374 238.564 110.473 241.906 112.308C245.152 114.079 251.897 117.764 251.914 119.074C251.521 130.988 243.337 139.895 243.248 139.983L243.014 140.235V140.59C243.014 144.344 245.399 146.744 247.327 148.664C248.689 150.029 249.869 151.21 249.869 152.454V156.519L254.015 170.107L253.975 178.981L255.963 178.121L256.577 178.514L258.225 177.713L259.438 176.618L259.518 176.162V170.268L260.82 169.209L260.885 168.749V164.109C261.842 162.913 262.42 161.078 262.913 159.202C263.378 157.485 263.894 155.545 264.626 155.008L264.99 154.749V146.707C266.812 144.654 268.074 140.876 269.161 137.403C269.88 135.072 270.793 132.174 271.48 131.689L271.739 131.487L271.824 131.172C272.256 129.427 272.434 121.836 272.434 114.255C272.434 106.96 272.272 99.674 272.026 97.525C271.498 96.16 270.058 85.331 270.058 82.555ZM254.515 101.697C253.974 101.737 253.457 101.737 252.801 101.697C249.844 100.767 247.693 98.052 243.894 97.252C240.763 96.585 237.59 96.92 235.674 97.252C235.674 97.252 235.653 96.509 237.04 96.145C237.666 93.874 236.523 86.11 237.04 83.181C238.244 81.928 238.406 73.979 238.406 73.979C241.574 73.762 240.224 70.422 242.528 68.791L242.839 59.581C242.839 59.581 244.201 64.778 246.138 66.875C247.75 68.623 249.876 67.806 251.776 69.528C254.08 71.605 253.073 78.864 254.515 79.899C254.993 82.84 254.515 101.697 254.515 101.697ZM173.633 154.121L172.776 154.096C159.011 153.64 126.782 152.868 124.713 155.649C120.021 158.922 114.638 157.403 110.701 156.292C108.757 155.75 107.355 155.351 106.325 155.605L105.173 156.28C105.173 156.28 103.011 158.361 102.409 158.938C99.2389 159.416 97.142 159.278 94.947 159.108C94.947 159.108 92.875 158.996 91.884 158.955C91.731 156.668 91.1809 155.674 90.5419 155.148L90.525 155.139L90.5859 154.873L91.621 153.114L91.7629 152.891L91.993 152.39V143.547L93.314 142.481L93.3749 142.02V136.113L93.783 135.744C94.68 134.964 94.749 134.67 94.749 133.13L94.171 130.895L93.46 129.987C93.589 129.574 93.739 129.074 93.739 129.074C94.138 127.606 94.324 127.126 95.368 126.956L96.0909 126.843L96.1119 126.119C96.1279 125.699 96.225 123.157 96.225 121.007C96.225 119.77 96.1919 118.659 96.0909 118.142L96.03 117.819L94.6959 116.752C94.6959 116.752 94.737 108.015 94.749 107.243L96.014 106.2L96.1119 105.768C96.2169 104.041 96.84 93.708 96.84 85.54C96.84 80.868 96.638 76.912 96.015 75.677L94.3179 73.804L93.377 73.058V44.268L94.6749 43.209L94.751 42.74V36.359L94.3799 36.09C92.0799 34.43 91.991 33.59 91.991 33.578C91.995 32.76 92.0959 32.618 92.9969 31.98L93.377 31.719V17.467L93.0049 17.202C91.5139 16.131 88.172 12.144 87.012 10.697L85.105 10.394C84.353 10.572 83.423 10.8 81.605 7.82699L81.338 7.40099H70.329C70.07 7.02099 69.35 5.98599 69.35 5.98599L68.8409 5.91999H66.522L66.259 6.64499L65.6559 8.17899L64.415 9.57499L65.236 10.113C70.344 13.793 70.966 15.514 71.257 16.333L72.4449 17.963L72.8649 17.69C75.6169 17.587 75.887 18.204 75.887 18.228C75.964 18.377 77.9239 22.059 78.2399 25.77V25.871C78.2399 27.171 76.64 31.404 76.017 32.19L75.4919 32.877L77.496 34.504C77.56 34.9 77.5939 35.587 77.5939 36.428C77.5939 38.754 77.371 42.142 77.231 43.827L76.3979 44.664L74.5549 46.351L74.4659 46.81V57.976L75.84 59.081V79.888L76.228 80.149C76.592 80.398 77.4849 81.515 77.5859 82.588L77.5939 82.79C77.5939 84.035 76.5429 85.496 76.2189 85.716L75.848 85.985L75.84 86.447V101.247C75.831 100.863 74.8539 101.643 74.8539 101.643L74.587 101.857L74.4739 102.228C74.4569 102.358 74.119 104.394 74.119 107.353C74.119 108.768 74.223 110.436 74.45 112.178L74.3199 112.404L73.254 113.254L73.061 113.799L73.093 132.479L73.4719 132.734C74.7129 133.615 75.8409 134.532 75.8409 136.096L75.881 137.202L74.8389 137.959L74.4899 138.23L74.467 138.682V143.488C74.467 143.095 73.4969 143.864 73.4969 143.864L73.1489 144.122L73.092 144.607V155.801L73.512 156.104C74.219 156.61 74.4659 156.825 74.4659 157.208C74.4659 157.648 74.0539 157.96 73.6169 158.234L73.204 158.493L73.092 159.063V164.943C72.615 165.347 69.924 167.586 69.924 167.586L68.3599 168.929L64.6539 170.861L64.3619 171.03L64.2059 171.483L63.5959 173.035L62.4839 174.288L63.1879 174.967L64.7919 176.713L65.5359 176.483C67.2899 175.396 73.8859 175.986 77.6199 176.6L78.34 176.722L78.5779 176.034C79.1549 174.482 84.126 170.941 87.129 169.066L91.7919 169.209C92.2989 169.269 94.948 170.102 95.499 171.007L95.7579 171.427H96.251C107.041 171.411 127.514 171.432 130.61 171.686L130.667 171.779C131.208 172.665 131.858 173.476 133.875 173.646H146.97C148.191 175.028 149.112 175.198 149.976 175.084C150.389 175.031 150.616 175.008 151.346 176.188L151.609 176.617H156.548L156.402 176.762L156.807 177.648L157.065 178.048L157.583 178.097H176.957L173.595 171.776L173.633 154.121ZM381.6 0.86499C376.855 0.86499 373.008 4.72099 373.008 9.46799C373.008 14.206 376.855 18.055 381.6 18.055C386.353 18.055 390.2 14.206 390.2 9.46799C390.2 4.72099 386.353 0.86499 381.6 0.86499ZM381.6 16.192C377.89 16.192 374.867 13.175 374.867 9.46699C374.867 5.75099 377.89 2.72999 381.6 2.72999C385.318 2.72999 388.341 5.75099 388.341 9.46699C388.342 13.175 385.318 16.192 381.6 16.192ZM381.302 54.48L381.067 54.057L380.396 51.984L379.233 49.12L379.547 49.823L379.951 35.307L379.563 35.03C378.851 34.529 378.73 34.236 378.157 32.559L374.374 23.516L372.095 21.221C370.575 19.938 368.684 18.348 367.472 16.4L367.217 15.982H360.848C360.577 15.596 359.858 14.561 359.858 14.561L359.349 14.497H353.982C353.719 14.115 353.004 13.08 353.004 13.08L352.494 13.017H348.453L348.162 12.657L346.816 10.875L346.323 10.796H342.14C340.494 9.08199 338.066 8.06399 336.046 7.29399C334.711 6.79299 332.905 6.10199 332.805 5.58099L332.662 4.86499H327.955C327.68 4.48999 326.952 3.44299 326.952 3.44299L326.455 3.38399H318.101L319.248 4.82899C319.66 5.33599 328.349 13.604 331.396 16.502V24.274C331.356 23.898 330.414 24.651 330.414 24.651L330.074 24.92L330.022 25.387V36.125L329.043 36.507L328.712 36.767L328.648 37.234V64.745L328.882 65.226L329.319 67.437L330.147 70.324L329.869 69.629L329.303 79.492L330.637 80.583C330.459 81.46 330.363 82.747 330.363 84.402C330.363 87.524 330.593 91.281 330.694 92.86L331.567 94.995L332.06 96.142V100.216C332.06 101.124 335.144 111.07 338.218 114.489C338.162 115.051 335.705 139.408 335.705 139.408C335.777 139.857 338.509 146.157 338.509 146.157L340.094 150.109C340.408 150.878 341.116 150.91 341.427 150.925L341.459 151.208C341.379 151.733 339.746 152.663 336.594 153.948L335.078 154.578L335.39 155.379C335.398 155.419 336.979 159.662 336.979 162.742L336.95 163.413C336.663 166.767 335.051 170.198 332.662 172.587L331.822 173.428L332.869 173.997C334.077 174.648 340.693 173.839 342.988 172.756C343.194 172.66 343.643 172.353 343.967 171.928L345.502 172.627L348.452 173.508C350.181 172.587 353.193 171.775 356.098 170.994C361.239 169.588 363.963 168.764 364.505 167.397L365.305 166.669L367.14 164.132L369.419 159.758L370.001 158.102L371.455 150.319C372.643 147.422 372.627 144.325 372.611 141.331C372.595 138.506 372.587 135.835 373.621 133.41C374.983 128.322 373.468 106.85 373.415 105.936L373.12 106.656L373.594 105.18L374.406 101.26L375.344 94.257C375.691 94.184 377.25 92.689 378.495 89.827C379.219 88.481 379.413 86.867 379.413 85.175C379.413 84.197 379.352 83.195 379.284 82.207L379.219 78.578C379.555 77.977 380.209 76.84 380.209 76.84L380.973 75.316L381.251 74.948C381.68 73.76 381.821 71.004 381.821 67.884C381.821 62.359 381.388 55.697 381.308 54.584L381.302 54.48ZM367.152 75.81C365.208 76.845 363.834 85.769 363.834 85.769C363.834 85.769 360.933 87.17 361.256 92.054C360.282 94.499 360.306 122.291 360.306 122.291C359.742 125.581 358.043 127.307 356.539 132.468C356.977 140.89 349.472 149.182 348.926 149.781L349.128 83.21C347.858 82.551 346.384 76.212 346.384 74.326C346.384 74.326 345.668 72.586 345.284 71.957C345.268 72.525 345.227 72.798 345.163 72.656C344.929 71.593 345.042 71.569 345.284 71.957C345.418 68.083 344.726 50.16 344.726 50.16L344.338 48.393L344.928 42.74C348.723 42.479 349.915 42.835 353.448 42.835C355.44 42.835 355.573 45.799 358.928 45.799C358.928 49.465 362.185 50.174 364.072 52.837C364.682 53.728 365.439 60.805 367.152 61.722V75.81ZM384.025 9.37199V9.34399C385.027 8.93799 385.463 8.13599 385.463 7.07699C385.463 5.69899 384.433 4.57099 382.812 4.57099H377.922V13.632H379.918V10.088H381.906C382.904 10.088 383.264 10.516 383.422 11.465C383.515 12.183 383.491 13.064 383.734 13.632H385.722C385.367 13.131 385.382 12.049 385.341 11.488C385.277 10.568 384.995 9.61699 384.025 9.37199ZM382.093 8.67299H379.919V6.11899H382.093C382.983 6.11899 383.459 6.50499 383.459 7.37399C383.459 8.28899 382.982 8.67299 382.093 8.67299ZM65.2109 138.025C65.3409 137.305 65.4 136.561 65.4 135.814C65.4 133.999 65.0859 132.157 64.8149 130.577C64.6529 129.598 64.439 128.342 64.439 127.606L64.528 127.052C66.423 124.627 66.9399 121.79 66.9399 118.751C66.9399 116.932 66.7469 115.029 66.5679 113.093L66.1479 105.996V99.983C66.3579 99.526 66.585 99.02 66.585 99.02L64.9529 96.818L63.65 95.505C62.854 93.693 62.5839 91.374 62.5839 89.081C62.5839 84.417 63.6839 79.84 63.7029 79.773L63.837 79.218L62.1589 77.898V77.771C62.1589 77.334 61.8119 76.632 59.6979 74.563L59.1329 74.005L58.4449 74.641C58.1899 74.381 57.9039 73.76 57.9039 73.362L57.936 73.156C58.365 72.584 59.5959 70.632 59.5959 68.923L59.403 67.864C59.185 67.346 58.6879 66.676 57.5359 66.447C53.8909 66.083 51.7209 64.334 51.5579 63.848C52.4229 63.112 57.496 57.095 59.504 53.284L64.6 43.757C65.679 42.75 66.002 41.261 66.002 39.469C66.002 38.087 65.8079 36.535 65.5989 34.876L65.0969 28.81C65.0969 24.651 62.3439 17.007 57.8589 14.002C55.9759 12.739 54.0359 12.889 53.3729 12.972L52.694 12.434C51.72 11.775 50.379 10.878 49.999 9.33399L49.853 8.76299L49.2709 8.67199C44.1229 7.86099 41.6729 8.07599 38.2709 8.37499L29.0889 8.81299L21.879 8.57699C21.75 8.57699 12.5509 8.99899 10.1829 10.349H2.82092L1.60797 11.933L1.00195 14.564L0.980957 15.93C0.980957 16.494 1.04996 16.857 1.55896 17.177L2.49298 18.355L7.09595 22.78L7.22595 22.934C6.73295 22.958 6.21497 22.982 6.21497 22.982C6.21497 22.982 6.90998 23.459 7.50098 23.855C7.58098 24.447 7.81496 24.651 8.81696 24.651C9.20596 24.865 9.59296 25.047 9.97296 24.641L10.0049 24.58L10.838 24.533L11.4109 25.158L11.395 25.209L11.3539 26.587L11.455 28.396L10.506 29.091L10.1589 29.352L9.97998 29.924V64.367C10.101 64.831 11.5969 67.293 11.5969 67.293C11.6769 69.006 11.726 71.581 11.468 72.082L10.114 75.167L9.97998 85.105C10.057 85.497 11.0799 87.657 11.0909 87.677L11.0829 87.827C11.0829 88.817 11.3539 94.373 11.3539 94.414C11.3459 94.232 11.0069 95.068 10.0209 95.157L9.21997 95.23L9.07092 107.216L8.77594 121.454L9.77496 132.701L9.98895 135.234C10.643 140.161 10.489 143.308 10.275 147.673L9.97998 158.468C9.00598 163.559 7.34498 169.912 6.87598 170.632C6.22998 171.25 4.11097 172.199 2.92297 172.653L1.52594 173.174L3.76495 175.09L4.59692 175.838L5.44196 175.659L7.81396 175.76C9.72496 175.947 11.0839 176.024 11.9769 175.675C16.7209 176.48 24.343 177.328 25.608 174.787C26.509 173.937 27.0759 173.752 27.3749 173.76L28.5699 174.633C29.0399 175.158 29.569 175.76 30.389 175.737C30.951 175.716 31.46 175.401 31.952 174.779C32.518 174.407 37.013 173.538 40.803 172.997L41.3279 172.921L41.5109 172.431C42.0919 170.868 44.1289 169.409 46.2919 167.868L47.7139 166.834C50.8299 164.526 56.436 161.944 56.491 161.915L56.9639 161.693L57.014 161.192C57.014 161.128 57.5469 155.263 58.8929 151.896C59.9799 149.1 62.7769 145.099 62.7999 145.067L65.2109 138.025ZM47.105 127.043C47.295 128.119 45.0369 136.448 44.4949 136.815C43.5989 141.24 44.6809 146.782 42.3929 148.826C40.5419 150.16 37.746 155.18 34.936 155.369L31.8699 158.138C30.0179 158.878 26.8979 159.198 26.8979 159.198C26.8979 159.198 30.5109 152.722 29.7629 153.621C29.6139 155.423 29.408 148.313 29.408 148.313C29.408 128.636 29.041 140.591 29.78 135.777C29.922 134.877 30.5439 134.602 31.1539 133.93V108.623C30.2129 108.243 29.695 107.411 29.78 106.396C29.857 105.502 30.3089 104.88 31.1539 104.545L32.52 97.872C32.52 97.872 30.584 90.276 32.52 87.868C32.835 84.346 32.5159 73.254 32.5159 73.254L36.856 77.719C36.856 77.719 39.8639 80.621 42.3929 81.981C42.3929 81.981 45.961 85.085 44.462 86.525C43.428 87.258 46.834 89.7 44.494 89.819C44.494 89.819 46.8539 92.391 45.5289 95.038C47.3429 96.004 44.8489 100.578 44.8489 102.292C44.8489 108.072 47.1039 104.015 47.1039 110.944C42.4679 114.27 49.497 120.648 46.579 122.717C48.544 123.985 46.386 125.856 47.105 127.043ZM45.892 32.87C45.445 33.097 47.2499 37.984 47.2499 37.984C45.4389 38.948 45.8849 48.015 45.8849 49.716C37.7379 50.351 39.62 57.112 35.947 58.237C35.708 58.312 35.0899 57.128 32.5189 58.237V30.949C34.7379 29.745 33.3469 29.717 34.3259 27.134C34.8029 26.96 35.592 26.506 35.592 26.506C35.805 26.981 35.805 27.502 35.592 27.983L40.7479 27.244H41.762C43.824 31.692 45.44 29.238 48.624 30.95L45.892 32.87ZM328.226 130.285L327.648 130.099L326.667 129.776C326.719 129.429 327.146 125.722 327.503 125.121L327.66 124.85L327.639 124.465L327.243 121.737C325.933 112.357 325.36 108.963 324.979 108.288L324.596 107.564L323.363 108.142C323.048 107.956 322.782 106.42 322.68 105.842C322.542 105.034 322.442 104.444 322.11 104.088C321.836 103.341 321.702 99.78 321.609 97.388C321.431 92.732 321.309 90.61 320.857 89.855L320.219 87.343L319.794 85.302L319.394 83.655L319.403 83.447C319.403 82.325 318.667 82.049 316.493 81.23L316.497 81.21L316.364 80.187C316.274 78.971 316.134 77.14 314.343 76.512C310.65 71.868 308.79 71.818 306.413 72.295C306.413 72.295 305.836 72.303 305.282 72.303C305.541 71.947 305.823 71.666 305.823 70.959C305.823 70.731 305.807 69.341 305.791 68.686C313.365 68.197 318.805 62.044 321.872 50.055L321.901 43.923C322.155 43.343 322.49 42.599 322.49 42.599L323.02 41.134L323.282 40.645C323.323 39.903 323.493 37.338 323.493 35.1C323.493 33.647 323.42 32.33 323.21 31.752L316.227 17.04L315.613 16.731L313.81 15.314C311.818 13.576 309.09 11.202 306.05 10.8L303.553 10.713L303.02 10.721C298.425 9.28399 292.949 7.54599 292.367 7.24099L292.178 7.13999L291.879 7.08699H285.133L284.842 6.70499C284.248 5.84899 283.88 5.60399 282.635 5.60399L279.023 6.57399L259.301 7.08699L259.148 8.83699L264.151 9.92599C264.539 10.231 265.077 10.653 265.077 10.653C267.521 12.391 273.988 16.99 274.215 20.627L274.255 21.389L274.659 21.343L277.33 21.563C277.742 21.426 278.947 20.482 278.947 20.482L279.015 20.375C279.532 20.49 281.44 20.962 282.652 21.355C279.832 25.067 276.243 27.783 273.514 29.727L270.067 32.388L270.099 32.683C269.898 34.334 269.793 36.716 269.793 39.097C269.793 41.486 269.897 43.86 270.099 45.503L270.149 45.835L271.454 46.968L271.446 46.999L271.425 47.328C271.425 47.995 271.805 48.716 272.844 49.783C272.847 50.351 272.912 56.52 272.912 56.52L273.099 56.983L273.354 59.537C273.47 61.717 273.551 62.463 274.003 62.881C274.473 63.916 274.544 65.625 274.544 66.514L274.528 67.077L274.52 67.184L274.766 67.701L275.101 69.419L275.87 71.971L275.571 71.268V76.346L275.919 76.835L276.388 77.874C276.388 77.874 276.707 78.47 276.953 78.945L277.608 84.685L277.842 85.164L277.995 86.217L278.597 88.264L278.319 87.619C278.327 95.244 278.336 106.996 278.336 115.436C278.336 121.19 278.336 125.406 278.319 125.729L278.295 126.177L279.731 127.333C279.936 128.796 280.05 130.057 280.05 130.945C280.05 131.883 279.956 132.481 279.811 132.732C277.972 134.348 273.705 148.92 272.868 151.838V151.895C272.868 153.229 274.041 154.013 276.138 155.419C280.237 158.18 287.846 163.3 292.033 174.74L293.052 177.525L293.731 174.648C294.774 170.218 295.045 167.429 295.045 165.591C295.045 164.403 294.935 163.622 294.843 163.028L294.985 162.946L295.991 161.98C296.108 161.431 296.165 160.728 296.165 159.924C296.165 157.669 295.777 154.581 295.401 151.578L294.798 146.025C295.732 143.98 296.019 141.029 296.019 138.003C296.019 136.026 295.901 134.014 295.748 132.172L294.903 130.313L294.555 129.75L294.551 129.657C294.551 129.031 295.076 128.428 295.189 128.336L295.46 128.089L295.522 127.693V127.556C295.522 126.343 294.935 120.904 293.986 112.32C293.137 104.706 291.99 94.409 291.99 92.525L292.002 92.311L292.807 89.957L293.308 89.03C294.589 86.332 294.961 85.074 294.961 83.692L294.876 82.72C296.993 84.296 299.976 89.702 301.567 92.648L302.567 94.49L302.586 94.781C302.586 95.723 302.183 98.233 301.872 100.124L301.143 105.035L301.94 105.196C304.975 105.924 308.706 125.665 308.706 128.406V128.462C308.818 129.093 308.867 130.786 308.867 132.9C308.867 137.657 308.624 144.551 308.309 146.228L305.73 154.332C304.195 158.669 303.467 160.859 303.467 162.015L303.564 162.638L303.791 163.202L305.674 163.186C309.283 163.133 310.936 163.105 318.586 170.585C319.657 171.656 324.095 173.071 324.972 173.342L325.913 173.632L328.908 157.714L329.623 154.582C330.852 151.635 329.897 150.107 329.437 149.359L329.316 149.356C329.982 146.119 330.189 143.831 330.189 142.167C330.189 140.457 329.975 139.395 329.817 138.599C329.732 138.165 329.664 137.863 329.664 137.6C329.664 137.208 329.789 136.901 330.144 136.388L330.286 136.165L330.299 135.85C330.299 134.428 328.856 131.304 328.395 130.548L328.226 130.285ZM305.122 48.789C305.122 48.789 304.641 51.236 304.899 52.8C303.998 54.902 302.215 61.362 300.789 63.17C300.082 64.081 297.694 65.686 295.313 66.128C293.854 66.403 291.542 66.128 291.542 66.128V24.642C292.093 24.605 292.602 24.605 293.261 24.642C296.538 24.642 304.9 36.503 304.9 36.503C307.155 40.53 306.27 43.906 306.27 43.906V46.872C305.824 47.094 305.566 49.018 305.122 48.789Z" fill="#636363"/>
</svg>
