<?xml version="1.0" encoding="UTF-8"?>
<svg version="1.1" xmlns="http://www.w3.org/2000/svg" width="100" height="100">
<path d="M0 0 C33 0 66 0 100 0 C100 33 100 66 100 100 C67 100 34 100 0 100 C0 67 0 34 0 0 Z " fill="#FEFEFE" transform="translate(0,0)"/>
<path d="M0 0 C1.02714111 0.60295898 2.05428223 1.20591797 3.11254883 1.82714844 C4.24499023 2.48585938 5.37743164 3.14457031 6.54418945 3.82324219 C7.12322021 4.1704834 7.70225098 4.51772461 8.29882812 4.87548828 C10.06661476 5.93474662 11.84662821 6.97039071 13.63012695 8.00292969 C24.41130723 14.34480044 24.41130723 14.34480044 26.88208008 17.68652344 C27.25620004 20.39071513 27.39756266 22.67727196 27.34301758 25.37402344 C27.34210114 26.11354248 27.34118469 26.85306152 27.34024048 27.61499023 C27.33421151 29.17503293 27.31848636 30.73506443 27.29370117 32.29492188 C27.25720301 34.67849536 27.25268191 37.0605122 27.25317383 39.44433594 C27.24334138 40.96257849 27.23168381 42.48081055 27.21801758 43.99902344 C27.21579193 44.70953857 27.21356628 45.42005371 27.21127319 46.15209961 C27.08491552 52.76219166 27.08491552 52.76219166 24.88208008 55.68652344 C22.65478516 57.27050781 22.65478516 57.27050781 19.90161133 58.78027344 C18.90194336 59.33585937 17.90227539 59.89144531 16.87231445 60.46386719 C15.82366211 61.03234375 14.77500977 61.60082031 13.69458008 62.18652344 C12.66526367 62.755 11.63594727 63.32347656 10.57543945 63.90917969 C8.57496896 65.01385974 6.57003607 66.11050503 4.56030273 67.19824219 C2.3171994 68.44472878 0.17780872 69.77255678 -1.98120117 71.15527344 C-5.76809058 73.00391683 -7.09420602 72.67792785 -11.11791992 71.68652344 C-13.72338867 70.44311523 -13.72338867 70.44311523 -16.30541992 68.88574219 C-17.2515918 68.32048828 -18.19776367 67.75523438 -19.17260742 67.17285156 C-20.14456055 66.57923828 -21.11651367 65.985625 -22.11791992 65.37402344 C-23.08987305 64.79201172 -24.06182617 64.21 -25.06323242 63.61035156 C-38.78187968 55.35860393 -38.78187968 55.35860393 -40.11791992 52.68652344 C-40.40146625 47.7459978 -40.43163239 42.80458343 -40.46801758 37.85668945 C-40.48456671 36.20680628 -40.51184349 34.55699449 -40.55004883 32.9074707 C-40.60493141 30.52485085 -40.62670703 28.14390972 -40.64135742 25.76074219 C-40.66402679 25.02724045 -40.68669617 24.29373871 -40.71005249 23.53800964 C-40.69447148 19.74452801 -40.30142815 17.92122124 -37.94213867 14.90380859 C-33.18016763 11.16520028 -28.01709256 8.3240359 -22.74291992 5.37402344 C-21.07616211 4.40625977 -21.07616211 4.40625977 -19.37573242 3.41894531 C-18.29291992 2.80986328 -17.21010742 2.20078125 -16.09448242 1.57324219 C-15.11560059 1.01854248 -14.13671875 0.46384277 -13.12817383 -0.10766602 C-8.33561369 -2.02741091 -4.75823474 -2.00448695 0 0 Z " fill="#9844AE" transform="translate(57.117919921875,14.3134765625)"/>
<path d="M0 0 C0.04950115 4.76886487 0.08576738 9.53757959 0.10986328 14.30664062 C0.11991023 15.92841192 0.13355015 17.55016516 0.15087891 19.171875 C0.17518493 21.50525374 0.18649613 23.8383926 0.1953125 26.171875 C0.20563507 26.89493835 0.21595764 27.61800171 0.22659302 28.36297607 C0.22808371 35.07723656 0.22808371 35.07723656 -2 38 C-4.22729492 39.58398437 -4.22729492 39.58398437 -6.98046875 41.09375 C-7.98013672 41.64933594 -8.97980469 42.20492187 -10.00976562 42.77734375 C-11.05841797 43.34582031 -12.10707031 43.91429687 -13.1875 44.5 C-14.21681641 45.06847656 -15.24613281 45.63695312 -16.30664062 46.22265625 C-18.30711112 47.3273363 -20.31204401 48.4239816 -22.32177734 49.51171875 C-24.56488068 50.75820534 -26.70427136 52.08603335 -28.86328125 53.46875 C-32.65169794 55.31813897 -33.97443544 54.9932926 -38 54 C-40.63720703 52.74072266 -40.63720703 52.74072266 -43.2578125 51.1640625 C-44.21300781 50.59429687 -45.16820313 50.02453125 -46.15234375 49.4375 C-47.13332031 48.839375 -48.11429688 48.24125 -49.125 47.625 C-50.11371094 47.03460938 -51.10242188 46.44421875 -52.12109375 45.8359375 C-56.21929977 43.37368652 -60.21527748 40.92858916 -64 38 C-63.64916412 35.22899116 -63.28633578 34.23115952 -61.07421875 32.4453125 C-60.28660156 32.00960937 -59.49898437 31.57390625 -58.6875 31.125 C-57.51767578 30.44824219 -57.51767578 30.44824219 -56.32421875 29.7578125 C-54 29 -54 29 -51.86328125 29.7109375 C-49.27081638 31.50446666 -47.22581841 33.77418159 -45 36 C-39.92352761 39.27550658 -33.79535142 38.45287239 -28 38 C-22.8496298 36.84545116 -19.38532876 34.00084308 -16 30 C-16 29.34 -16 28.68 -16 28 C-18.64 26.68 -21.28 25.36 -24 24 C-24.825 24.66 -25.65 25.32 -26.5 26 C-30.4781731 28.63330607 -33.29401891 28.5975849 -38 28 C-40.8100346 26.20636089 -42.50940468 24.98119065 -44 22 C-44.55512815 17.36786507 -44.6364242 14.01827873 -42.125 10 C-38.82536427 6.89446049 -36.56673298 6.72399745 -32.04296875 6.7734375 C-29.12489103 7.09704841 -27.25653912 8.16656197 -25 10 C-25 10.66 -25 11.32 -25 12 C-23.9275 11.34 -22.855 10.68 -21.75 10 C-18.69019314 8.11704193 -17.8664136 8 -14 8 C-14 7.34 -14 6.68 -14 6 C-11.953125 4.4921875 -11.953125 4.4921875 -9.25 2.875 C-8.36828125 2.33617187 -7.4865625 1.79734375 -6.578125 1.2421875 C-4 0 -4 0 0 0 Z " fill="#87369C" transform="translate(84,32)"/>
<path d="M0 0 C3.63711691 2.45110053 5.16287841 3.7342421 6 8 C4.71186658 8.83878455 3.41936744 9.67086783 2.125 10.5 C1.40570313 10.9640625 0.68640625 11.428125 -0.0546875 11.90625 C-2 13 -2 13 -4 13 C-5.02104551 12.02149805 -6.0206121 11.02019573 -7 10 C-10.23415916 8.38292042 -13.50375265 8.43177624 -17 9 C-20.13836313 11.02685952 -21.65870267 12.45297192 -22.4765625 16.16015625 C-22.74267565 20.35493981 -22.33198013 22.49165543 -20 26.0625 C-16.2482114 28.48553014 -13.29151349 28.91498307 -9 28 C-6.43613282 26.87286594 -4.34649091 25.56432728 -2 24 C0.64 25.65 3.28 27.3 6 29 C3.61015316 33.77969369 1.28583307 37.08052284 -3.77734375 39.1171875 C-9.96986703 40.81356357 -16.58925326 41.31336221 -22.66796875 38.97265625 C-28.25735368 35.59281042 -32.08236458 31.28253889 -34 25 C-35.03803646 18.10105002 -35.15833927 11.92434987 -31.375 5.875 C-23.61575066 -3.97046261 -10.95097518 -6.1325461 0 0 Z " fill="#FAF8FB" transform="translate(63,31)"/>
<path d="M0 0 C2.59246487 1.79352916 4.63746284 4.06324409 6.86328125 6.2890625 C11.93384279 9.5607552 18.07391225 8.75446853 23.86328125 8.2890625 C28.00320435 7.26286764 30.98870997 5.45109091 33.86328125 2.2890625 C34.85328125 1.9590625 35.84328125 1.6290625 36.86328125 1.2890625 C37.52328125 0.6290625 38.18328125 -0.0309375 38.86328125 -0.7109375 C40.51534572 0.21553786 42.15978095 1.15562824 43.80078125 2.1015625 C44.71730469 2.62363281 45.63382813 3.14570312 46.578125 3.68359375 C48.86328125 5.2890625 48.86328125 5.2890625 49.86328125 8.2890625 C49.20320068 8.66192383 48.54312012 9.03478516 47.86303711 9.41894531 C44.84218501 11.12547384 41.82148199 12.83226607 38.80078125 14.5390625 C37.76244141 15.12558594 36.72410156 15.71210937 35.65429688 16.31640625 C34.63916016 16.89003906 33.62402344 17.46367188 32.578125 18.0546875 C31.5866748 18.60962891 30.59522461 19.16457031 29.57373047 19.73632812 C27.94945754 20.66682496 26.34024423 21.62565722 24.76611328 22.63867188 C21.96965331 24.42754415 20.35881486 25.32847563 16.99633789 25.06103516 C13.75049722 24.26127296 11.46178037 23.17159532 8.60546875 21.453125 C7.65027344 20.88335937 6.69507812 20.31359375 5.7109375 19.7265625 C4.72996094 19.1284375 3.74898437 18.5303125 2.73828125 17.9140625 C1.74957031 17.32367188 0.76085937 16.73328125 -0.2578125 16.125 C-4.35601852 13.66274902 -8.35199623 11.21765166 -12.13671875 8.2890625 C-11.78588287 5.51805366 -11.42305453 4.52022202 -9.2109375 2.734375 C-8.42332031 2.29867187 -7.63570312 1.86296875 -6.82421875 1.4140625 C-5.65439453 0.73730469 -5.65439453 0.73730469 -4.4609375 0.046875 C-2.13671875 -0.7109375 -2.13671875 -0.7109375 0 0 Z " fill="#6C277E" transform="translate(32.13671875,61.7109375)"/>
<path d="M0 0 C2.9375 1.3125 2.9375 1.3125 5 3 C5.33 3.99 5.66 4.98 6 6 C3.56401192 7.31537364 1.1263175 8.62739143 -1.3125 9.9375 C-2.00279297 10.31068359 -2.69308594 10.68386719 -3.40429688 11.06835938 C-4.07138672 11.42607422 -4.73847656 11.78378906 -5.42578125 12.15234375 C-6.34484253 12.6472229 -6.34484253 12.6472229 -7.2824707 13.15209961 C-9 14 -9 14 -12 15 C-12.33 15.66 -12.66 16.32 -13 17 C-14.72869779 13.54260443 -14.48966895 9.78024432 -14 6 C-10.31404704 0.10247526 -6.74948368 -0.73701259 0 0 Z " fill="#9741AD" transform="translate(54,39)"/>
<path d="M0 0 C2.66687601 1.05271421 4.98111103 2.36437297 7.375 3.9375 C7.04512361 6.41157292 6.79527913 7.6012767 4.8125 9.1875 C0.33809718 10.56423933 -3.9272244 10.82883219 -8.125 8.625 C-9.625 6.9375 -9.625 6.9375 -9.625 3.9375 C-3.41414405 -0.08128914 -3.41414405 -0.08128914 0 0 Z " fill="#6B257D" transform="translate(51.625,50.0625)"/>
<path d="M0 0 C0.66 0 1.32 0 2 0 C2 0.99 2 1.98 2 3 C2.66 3 3.32 3 4 3 C4 2.01 4 1.02 4 0 C4.99 0 5.98 0 7 0 C7.33 1.65 7.66 3.3 8 5 C7.34 5 6.68 5 6 5 C6.33 6.65 6.66 8.3 7 10 C6.34 10 5.68 10 5 10 C5 10.99 5 11.98 5 13 C4.34 13 3.68 13 3 13 C3 12.01 3 11.02 3 10 C2.01 10 1.02 10 0 10 C0 10.99 0 11.98 0 13 C-0.66 13 -1.32 13 -2 13 C-2.33 11.35 -2.66 9.7 -3 8 C-2.34 8 -1.68 8 -1 8 C-1.33 6.35 -1.66 4.7 -2 3 C-1.34 3 -0.68 3 0 3 C0 2.01 0 1.02 0 0 Z " fill="#ECDFEF" transform="translate(70,42)"/>
<path d="M0 0 C0.99 0 1.98 0 3 0 C3.33 1.65 3.66 3.3 4 5 C3.34 5 2.68 5 2 5 C1.67 5.99 1.34 6.98 1 8 C-0.32 8 -1.64 8 -3 8 C-3 7.01 -3 6.02 -3 5 C-2.01 5 -1.02 5 0 5 C0 3.35 0 1.7 0 0 Z " fill="#C69ECF" transform="translate(74,42)"/>
<path d="M0 0 C0.33 0 0.66 0 1 0 C1 2.31 1 4.62 1 7 C-1.31 7 -3.62 7 -6 7 C-5.02433888 5.83040013 -4.044375 4.66438823 -3.0625 3.5 C-2.51722656 2.8503125 -1.97195312 2.200625 -1.41015625 1.53125 C-0.71212891 0.77328125 -0.71212891 0.77328125 0 0 Z " fill="#000000" transform="translate(99,93)"/>
<path d="M0 0 C1.16959987 0.97566112 2.33561177 1.955625 3.5 2.9375 C4.1496875 3.48277344 4.799375 4.02804688 5.46875 4.58984375 C5.9740625 5.05519531 6.479375 5.52054687 7 6 C7 6.33 7 6.66 7 7 C4.69 7 2.38 7 0 7 C0 4.69 0 2.38 0 0 Z " fill="#000000" transform="translate(0,93)"/>
<path d="M0 0 C2.31 0 4.62 0 7 0 C7 2.31 7 4.62 7 7 C5.83040013 6.02433888 4.66438823 5.044375 3.5 4.0625 C2.8503125 3.51722656 2.200625 2.97195312 1.53125 2.41015625 C1.0259375 1.94480469 0.520625 1.47945313 0 1 C0 0.67 0 0.34 0 0 Z " fill="#000000" transform="translate(93,0)"/>
<path d="M0 0 C2.31 0 4.62 0 7 0 C6.02433888 1.16959987 5.044375 2.33561177 4.0625 3.5 C3.51722656 4.1496875 2.97195312 4.799375 2.41015625 5.46875 C1.94480469 5.9740625 1.47945313 6.479375 1 7 C0.67 7 0.34 7 0 7 C0 4.69 0 2.38 0 0 Z " fill="#000000" transform="translate(0,0)"/>
</svg>
