<?xml version="1.0" encoding="UTF-8"?>
<svg version="1.1" xmlns="http://www.w3.org/2000/svg" width="50" height="50">
<path d="M0 0 C16.5 0 33 0 50 0 C50 16.5 50 33 50 50 C33.5 50 17 50 0 50 C0 33.5 0 17 0 0 Z " fill="#FDFDFE" transform="translate(0,0)"/>
<path d="M0 0 C4.14667574 1.38222525 5.25447826 4.20098038 7.3125 7.8125 C7.69728516 8.44220703 8.08207031 9.07191406 8.47851562 9.72070312 C11.15486937 14.36654124 11.15486937 14.36654124 10.4375 17.30078125 C8.06559133 20.10453199 5.46399901 21.78006991 2 23 C-2.21497433 22.17756598 -5.50805867 19.43623814 -9 17 C-7.51481201 12.95698825 -5.57122002 9.38853744 -3.375 5.6875 C-2.74335938 4.61886719 -2.11171875 3.55023438 -1.4609375 2.44921875 C-0.97882812 1.64097656 -0.49671875 0.83273437 0 0 Z " fill="#666B90" transform="translate(24,9)"/>
<path d="M0 0 C0.59167969 0.38414063 1.18335937 0.76828125 1.79296875 1.1640625 C6.42068699 4.25446754 6.42068699 4.25446754 11.6875 4.5 C12.450625 4.005 13.21375 3.51 14 3 C15.093125 2.46375 16.18625 1.9275 17.3125 1.375 C18.199375 0.92125 19.08625 0.4675 20 0 C18.45463516 3.30708075 16.57205999 6.24726899 14.5 9.25 C13.8915625 10.14203125 13.283125 11.0340625 12.65625 11.953125 C11.83640625 12.96632813 11.83640625 12.96632813 11 14 C10.34 14 9.68 14 9 14 C7.5760131 12.28480923 6.2336784 10.5012088 4.9375 8.6875 C3.86822266 7.20830078 3.86822266 7.20830078 2.77734375 5.69921875 C1 3 1 3 0 0 Z " fill="#9199B6" transform="translate(15,28)"/>
<path d="M0 0 C4.20059624 1.40019875 5.19051525 4.36825877 7.1875 8.0625 C7.55552734 8.72572266 7.92355469 9.38894531 8.30273438 10.07226562 C9.21012062 11.71027457 10.10615573 13.35456221 11 15 C9 16 9 16 7.08984375 15.64453125 C4.57953567 14.67412177 2.94469822 13.88486135 1 12 C-0.01792163 7.98693725 -0.10379066 4.12567865 0 0 Z " fill="#8B94B2" transform="translate(24,9)"/>
<path d="M0 0 C4.15414253 1.22736029 6.43688534 2.327664 10 5 C5.545 7.97 5.545 7.97 1 11 C0.34 10.67 -0.32 10.34 -1 10 C-0.67 6.7 -0.34 3.4 0 0 Z " fill="#686D92" transform="translate(25,21)"/>
<path d="M0 0 C0 3.3 0 6.6 0 10 C-4.43090471 8.79157144 -6.98112756 7.48331435 -10 4 C-8.52184338 3.3310968 -7.04244528 2.66493641 -5.5625 2 C-4.73878906 1.62875 -3.91507813 1.2575 -3.06640625 0.875 C-1 0 -1 0 0 0 Z " fill="#484D76" transform="translate(25,21)"/>
<path d="M0 0 C1.48030272 0.81042836 2.95921142 1.62340348 4.4375 2.4375 C5.26121094 2.88996094 6.08492187 3.34242187 6.93359375 3.80859375 C9 5 9 5 10 6 C10.04092937 8.33297433 10.04241723 10.66705225 10 13 C6.40523299 9.50794062 3.07973809 5.95966325 0 2 C0 1.34 0 0.68 0 0 Z " fill="#707598" transform="translate(15,28)"/>
</svg>
