<?xml version="1.0" encoding="UTF-8"?>
<svg version="1.1" xmlns="http://www.w3.org/2000/svg" width="1133" height="485">
<path d="M0 0 C0.87962402 0.52134521 1.75924805 1.04269043 2.66552734 1.57983398 C3.67502441 2.17094971 4.68452148 2.76206543 5.72460938 3.37109375 C7.34665283 4.33873657 7.34665283 4.33873657 9.00146484 5.32592773 C10.15171638 6.00269503 11.30260914 6.67837352 12.45410156 7.35302734 C14.25721695 8.40963976 16.05989245 9.46693587 17.86062622 10.52760315 C23.78845439 14.01808574 29.76220994 17.42562885 35.74237061 20.82540894 C45.96888735 26.64193771 56.15014921 32.53300705 66.30322266 38.47680664 C73.92552263 42.93259118 81.58177796 47.32739919 89.25146484 51.70092773 C103.72596854 59.9550841 118.1586833 68.28060146 132.58544922 76.61791992 C135.80714759 78.47945445 139.02917563 80.34041613 142.25146484 82.20092773 C143.31751953 82.81645508 144.38357422 83.43198242 145.48193359 84.06616211 C152.88445204 88.33616225 160.3017544 92.57960042 167.72525024 96.81295776 C186.70331352 107.63609152 205.54834306 118.68219984 224.37646484 129.76342773 C224.80416902 139.82092112 225.09855864 149.87302913 225.22880554 159.93902016 C225.29338504 164.61569341 225.40155989 169.28236749 225.61425781 173.95483398 C226.93912652 204.052739 226.93912652 204.052739 221.09710693 211.77728271 C215.52477221 216.54048688 209.34635579 219.20760186 202.47360229 221.58602905 C197.45776714 223.49283422 193.04087645 226.31057568 188.50146484 229.13842773 C180.72661298 233.76342773 180.72661298 233.76342773 178.37646484 233.76342773 C180.94954568 236.67951201 183.89360758 238.34234247 187.26708984 240.23999023 C187.84875916 240.56953705 188.43042847 240.89908386 189.02972412 241.23861694 C190.89272709 242.29319672 192.75932835 243.34118667 194.62646484 244.38842773 C195.8350778 245.06892092 197.04341363 245.74990655 198.25146484 246.43139648 C198.817599 246.75007785 199.38373316 247.06875921 199.9670229 247.39709759 C201.18580037 248.08901791 202.40061996 248.78799742 203.60978222 249.4965868 C206.78514842 251.34986866 209.94331944 253.04951606 213.30744934 254.53605652 C223.02339725 259.09673979 223.02339725 259.09673979 225.27852249 263.54124451 C226.7916257 268.6570122 226.70836347 273.92100753 226.68505859 279.21264648 C226.71809438 280.9150851 226.75420709 282.61746649 226.79322815 284.31977844 C226.85576344 287.8811018 226.85992686 291.43687592 226.82641602 294.99853516 C226.79833259 298.63236704 226.86047047 302.24566876 227.01098633 305.87646484 C228.19994315 334.81288813 228.19994315 334.81288813 222.10028076 342.71057129 C216.46988403 347.49264654 210.14720777 350.24173679 203.23831177 352.70706177 C199.60188396 354.04934131 196.61004196 355.79399543 193.32958984 357.84936523 C191.42896811 358.94644723 189.5279358 360.04281828 187.62646484 361.13842773 C186.56830566 361.74871826 185.51014648 362.35900879 184.41992188 362.98779297 C175.78470757 367.96332121 167.12961129 372.90361458 158.47229004 377.84051514 C150.41419563 382.43718212 142.38246393 387.07656574 134.37646484 391.76342773 C125.78123813 396.79523463 117.15334354 401.76731845 108.50146484 406.70092773 C99.40566497 411.887852 90.31934221 417.0902428 81.25146484 422.32592773 C79.65238281 423.24921875 79.65238281 423.24921875 78.02099609 424.19116211 C74.80588961 426.04812967 71.59111107 427.90566353 68.37646484 429.76342773 C45.52108585 442.97169453 45.52108585 442.97169453 35.18505859 448.87670898 C34.58488922 449.21968018 33.98471985 449.56265137 33.36636353 449.91601562 C30.37764827 451.62319284 27.38728988 453.32739136 24.39404297 455.02661133 C19.09115776 458.04260857 13.8121076 461.08242429 8.59912109 464.25170898 C7.72892334 464.77539062 6.85872559 465.29907227 5.9621582 465.83862305 C4.37748549 466.79643892 2.80070366 467.76749708 1.23413086 468.75463867 C0.5411792 469.17132813 -0.15177246 469.58801758 -0.86572266 470.01733398 C-1.45208496 470.38157471 -2.03844727 470.74581543 -2.64257812 471.12109375 C-6.45587568 472.35757217 -9.73058578 471.18430886 -13.24707031 469.52685547 C-14.12669434 469.00551025 -15.00631836 468.48416504 -15.91259766 467.94702148 C-16.92209473 467.35590576 -17.9315918 466.76479004 -18.97167969 466.15576172 C-20.59372314 465.1881189 -20.59372314 465.1881189 -22.24853516 464.20092773 C-23.39878669 463.52416044 -24.54967946 462.84848195 -25.70117188 462.17382812 C-27.50428726 461.11721571 -29.30696276 460.05991959 -31.10769653 458.99925232 C-37.03552471 455.50876973 -43.00928025 452.10122662 -48.98944092 448.70144653 C-59.21595766 442.88491776 -69.39721952 436.99384842 -79.55029297 431.05004883 C-87.17259294 426.59426429 -94.82884827 422.19945628 -102.49853516 417.82592773 C-116.97303885 409.57177137 -131.40575362 401.24625401 -145.83251953 392.90893555 C-149.05421791 391.04740101 -152.27624594 389.18643934 -155.49853516 387.32592773 C-156.56458984 386.71040039 -157.63064453 386.09487305 -158.72900391 385.46069336 C-166.13152235 381.19069322 -173.54882471 376.94725505 -180.97232056 372.71389771 C-211.21612163 355.46594676 -211.21612163 355.46594676 -217.43188477 351.49194336 C-220.10716004 350.0430832 -222.14396035 349.28824775 -225.02026367 348.48803711 C-230.41173101 346.68923064 -234.49653994 344.66510843 -237.62353516 339.76342773 C-240.74202547 329.00845381 -240.37492515 317.5561159 -240.22436523 306.45288086 C-240.1781778 302.82549756 -240.22646172 299.22035598 -240.36791992 295.59545898 C-241.48837526 266.73518058 -241.48837526 266.73518058 -235.32879639 258.8114624 C-229.76822599 254.10005923 -223.61863965 251.41660482 -216.80197144 248.99911499 C-211.40697063 246.90168935 -206.57056154 243.86417789 -201.62353516 240.88842773 C-199.8761529 239.88645284 -198.12659956 238.88824006 -196.37353516 237.89624023 C-195.64650391 237.4826123 -194.91947266 237.06898438 -194.17041016 236.64282227 C-193.65994141 236.35262207 -193.14947266 236.06242188 -192.62353516 235.76342773 C-192.62353516 235.10342773 -192.62353516 234.44342773 -192.62353516 233.76342773 C-193.27612305 233.40216797 -193.92871094 233.0409082 -194.60107422 232.66870117 C-197.69388618 230.95384256 -200.78368847 229.23362308 -203.87353516 227.51342773 C-204.89833984 226.94624023 -205.92314453 226.37905273 -206.97900391 225.79467773 C-208.62301369 224.87801773 -210.26638349 223.95832573 -211.87335205 222.97817993 C-215.45345069 220.82241563 -218.8799361 219.29510915 -222.84912109 217.96801758 C-228.89677834 215.65342795 -233.8626874 213.19839015 -237.62353516 207.76342773 C-241.09436073 197.01547432 -240.6846436 185.47818045 -240.45068359 174.30200195 C-240.35904372 169.79046934 -240.4681279 165.30877256 -240.62784958 160.80010796 C-241.42891036 134.63965364 -241.42891036 134.63965364 -235.33117676 126.82598877 C-229.69662539 122.05731711 -223.38128445 119.29763674 -216.48034668 116.82281494 C-212.84952964 115.47640441 -209.85469274 113.72975613 -206.57666016 111.67749023 C-204.67603842 110.58040824 -202.77500611 109.48403719 -200.87353516 108.38842773 C-199.81537598 107.77813721 -198.7572168 107.16784668 -197.66699219 106.5390625 C-189.03177788 101.56353426 -180.37668161 96.62324089 -171.71936035 91.68634033 C-163.66126595 87.08967335 -155.62953425 82.45028973 -147.62353516 77.76342773 C-139.02830844 72.73162084 -130.40041386 67.75953702 -121.74853516 62.82592773 C-112.65273528 57.63900347 -103.56641252 52.43661267 -94.49853516 47.20092773 C-93.43248047 46.58540039 -92.36642578 45.96987305 -91.26806641 45.33569336 C-88.05295992 43.4787258 -84.83818138 41.62119194 -81.62353516 39.76342773 C-58.76815617 26.55516094 -58.76815617 26.55516094 -48.43212891 20.65014648 C-47.83195953 20.30717529 -47.23179016 19.9642041 -46.61343384 19.61083984 C-43.62471859 17.90366263 -40.63436019 16.19946411 -37.64111328 14.50024414 C-32.33822808 11.48424689 -27.05917791 8.44443118 -21.84619141 5.27514648 C-20.97599365 4.75146484 -20.1057959 4.2277832 -19.20922852 3.68823242 C-17.6245558 2.73041655 -16.04777397 1.75935839 -14.48120117 0.7722168 C-13.78824951 0.35552734 -13.09529785 -0.06116211 -12.38134766 -0.49047852 C-11.79498535 -0.85471924 -11.20862305 -1.21895996 -10.60449219 -1.59423828 C-6.79119463 -2.8307167 -3.51648453 -1.65745339 0 0 Z M-12.00634766 77.11499023 C-13.36723511 77.88625244 -13.36723511 77.88625244 -14.75561523 78.6730957 C-15.74327881 79.23915527 -16.73094238 79.80521484 -17.74853516 80.38842773 C-18.7768042 80.97382324 -19.80507324 81.55921875 -20.86450195 82.16235352 C-30.09841691 87.43226718 -39.28017252 92.79093903 -48.45556641 98.16186523 C-54.82918604 101.8897354 -61.22480883 105.5788655 -67.62353516 109.26342773 C-75.97159164 114.07181902 -84.30601856 118.9023989 -92.62353516 123.76342773 C-102.02465264 129.25774838 -111.45044897 134.7080368 -120.88623047 140.14257812 C-129.40058718 145.04964396 -137.89100027 149.99683732 -146.37548828 154.95532227 C-153.7654344 159.27112075 -161.17872226 163.54295282 -168.62353516 167.76342773 C-163.37113557 172.33635879 -157.33144813 175.44984029 -151.27246094 178.80981445 C-146.43923628 181.51361839 -141.75195216 184.29556042 -137.18212891 187.42749023 C-129.04882503 193.51762146 -129.04882503 193.51762146 -119.56103516 195.52905273 C-116.5823683 193.91258108 -114.22989528 191.93003162 -111.62353516 189.76342773 C-108.95299279 188.15376605 -106.19075698 186.72301019 -103.43603516 185.26342773 C-95.28116344 180.76323615 -87.24391685 176.06553768 -79.20825195 171.35693359 C-71.41689705 166.79615537 -63.59168484 162.29683641 -55.74853516 157.82592773 C-44.147464 151.21199761 -32.57279254 144.55389492 -21.01025391 137.87280273 C-19.60138916 137.06746094 -19.60138916 137.06746094 -18.1640625 136.24584961 C-16.60795289 135.33784485 -15.06702175 134.40231821 -13.55566406 133.42163086 C-10.75278443 131.63011534 -9.12637919 130.72320535 -5.75756836 130.99267578 C-2.50902199 131.79158993 -0.20508154 132.87845002 2.66552734 134.57983398 C3.67502441 135.17094971 4.68452148 135.76206543 5.72460938 136.37109375 C6.80597168 137.01618896 7.88733398 137.66128418 9.00146484 138.32592773 C10.15171638 139.00269503 11.30260914 139.67837352 12.45410156 140.35302734 C14.25721695 141.40963976 16.05989245 142.46693587 17.86062622 143.52760315 C23.78845439 147.01808574 29.76220994 150.42562885 35.74237061 153.82540894 C45.95347781 159.63317324 56.12028745 165.51389932 66.25708008 171.45043945 C75.53412514 176.8750405 84.86402974 182.20553425 94.20263672 187.52319336 C95.32605469 188.16321289 96.44947266 188.80323242 97.60693359 189.46264648 C98.60104248 190.02814209 99.59515137 190.5936377 100.61938477 191.17626953 C103.37646484 192.76342773 103.37646484 192.76342773 105.98706055 194.53222656 C108.22958417 195.95222716 108.22958417 195.95222716 110.39404297 195.60839844 C112.72280415 194.615807 114.89276285 193.49463676 117.09521484 192.24389648 C118.48051392 191.46018677 118.48051392 191.46018677 119.89379883 190.66064453 C120.87807861 190.09643799 121.8623584 189.53223145 122.87646484 188.95092773 C123.88717041 188.37576416 124.89787598 187.80060059 125.93920898 187.20800781 C135.84362604 181.54668476 145.63163688 175.69442925 155.37646484 169.76342773 C151.01632013 165.98581248 146.26338279 163.30841785 141.25146484 160.51342773 C132.83348749 155.76332051 124.49289153 150.89759112 116.18896484 145.95092773 C107.29020262 140.653451 98.35735339 135.42095173 89.37646484 130.26342773 C80.5011417 125.16583721 71.67256142 119.99653246 62.87646484 114.76342773 C52.90928989 108.83375334 42.89186054 102.99934681 32.83618164 97.22119141 C24.68472978 92.53243582 16.57621804 87.7747464 8.49047852 82.97363281 C6.12105416 81.56696559 3.74912774 80.16462309 1.37646484 78.76342773 C0.34078369 78.14540283 0.34078369 78.14540283 -0.71582031 77.51489258 C-5.73227283 74.56548204 -7.0194792 74.27668197 -12.00634766 77.11499023 Z M-12.00634766 209.11499023 C-12.91570068 209.63037354 -13.82505371 210.14575684 -14.76196289 210.67675781 C-15.74753174 211.24160889 -16.73310059 211.80645996 -17.74853516 212.38842773 C-19.26265991 213.2502063 -19.26265991 213.2502063 -20.80737305 214.12939453 C-32.12838413 220.58945574 -43.38237582 227.16564807 -54.62353516 233.76342773 C-51.72751666 236.89534228 -48.84857108 238.98487672 -45.14306641 241.08374023 C-44.06887451 241.69733398 -42.99468262 242.31092773 -41.88793945 242.94311523 C-40.74881104 243.58506836 -39.60968262 244.22702148 -38.43603516 244.88842773 C-36.08322482 246.22217318 -33.73222468 247.5590908 -31.38134766 248.89624023 C-30.80057968 249.22569641 -30.21981171 249.55515259 -29.6214447 249.89459229 C-26.14436458 251.87345682 -22.70925805 253.90705368 -19.30322266 256.00561523 C-18.53260498 256.47725098 -17.7619873 256.94888672 -16.96801758 257.43481445 C-15.56778054 258.29730342 -14.17421428 259.17075322 -12.78881836 260.05688477 C-9.26244706 262.24950398 -9.26244706 262.24950398 -5.23022461 262.53222656 C-2.37867945 261.6912117 -0.17538756 260.54881826 2.37646484 259.02514648 C3.81699219 258.17364014 3.81699219 258.17364014 5.28662109 257.30493164 C6.30626953 256.69311035 7.32591797 256.08128906 8.37646484 255.45092773 C10.52177932 254.18051989 12.66762397 252.91100696 14.81396484 251.64233398 C15.90064453 250.99796387 16.98732422 250.35359375 18.10693359 249.68969727 C23.16908764 246.7072902 28.27035622 243.7947432 33.37646484 240.88842773 C34.73771484 240.11245239 34.73771484 240.11245239 36.12646484 239.32080078 C38.20922318 238.13399464 40.29251842 236.94814601 42.37646484 235.76342773 C39.0025685 232.95235794 35.61243291 230.61533327 31.79833984 228.44311523 C30.72712891 227.82960205 29.65591797 227.21608887 28.55224609 226.58398438 C27.42173828 225.94195068 26.29123047 225.29991699 25.12646484 224.63842773 C22.78697535 223.30284379 20.4489379 221.9647269 18.11083984 220.62670898 C16.96679688 219.9726709 15.82275391 219.31863281 14.64404297 218.64477539 C9.4867835 215.67542083 4.37121121 212.63545689 -0.72216797 209.55786133 C-5.73329151 206.56843144 -7.00346357 206.26756658 -12.00634766 209.11499023 Z M-128.83837891 276.65795898 C-129.90910645 277.27920654 -130.97983398 277.9004541 -132.08300781 278.54052734 C-133.24239582 279.21891628 -134.40173736 279.89738464 -135.56103516 280.57592773 C-136.73576171 281.25936606 -137.91073055 281.94238808 -139.0859375 282.625 C-141.45990199 284.00463285 -143.83254841 285.38649006 -146.20410156 286.77026367 C-151.04545295 289.59225373 -155.89709659 292.39633015 -160.74853516 295.20092773 C-163.37385509 296.72120967 -165.99870892 298.24229349 -168.62353516 299.76342773 C-164.26339045 303.54104299 -159.5104531 306.21843762 -154.49853516 309.01342773 C-146.0805578 313.76353496 -137.73996184 318.62926435 -129.43603516 323.57592773 C-120.53727293 328.87340447 -111.6044237 334.10590374 -102.62353516 339.26342773 C-93.74821201 344.36101826 -84.91963174 349.53032301 -76.12353516 354.76342773 C-66.1563602 360.69310213 -56.13893085 366.52750866 -46.08325195 372.30566406 C-37.9318001 376.99441964 -29.82328835 381.75210907 -21.73754883 386.55322266 C-20.10220862 387.52408272 -18.46365993 388.48956777 -16.82128906 389.44848633 C-15.41546342 390.28960796 -14.02925176 391.16501879 -12.671875 392.08227539 C-9.87363221 393.91386639 -8.22883539 394.84293751 -4.85791016 394.40014648 C-0.07793837 391.98129603 4.52676357 389.32023719 9.12646484 386.57592773 C11.28752117 385.30050676 13.44899384 384.02579101 15.61083984 382.75170898 C16.72652344 382.09251465 17.84220703 381.43332031 18.99169922 380.75415039 C24.43238509 377.55425479 29.90467959 374.40974542 35.37646484 371.26342773 C43.72484372 366.45560056 52.05895207 361.62445433 60.37646484 356.76342773 C69.78636815 351.26397237 79.22117047 345.80893577 88.66552734 340.36889648 C95.91597996 336.18993633 103.1513306 331.98599401 110.37646484 327.76342773 C119.04887742 322.69540743 127.73742953 317.65621848 136.43896484 312.63842773 C138.07188477 311.69676758 138.07188477 311.69676758 139.73779297 310.73608398 C144.94506275 307.73528445 150.15556447 304.74045178 155.37646484 301.76342773 C150.88680871 297.85576407 145.91921112 295.09296491 140.75146484 292.20092773 C135.11047437 289.02861283 129.482622 285.85126654 123.94677734 282.49780273 C123.09293457 281.98548096 122.2390918 281.47315918 121.359375 280.9453125 C119.7349447 279.9676195 118.11707957 278.97891337 116.50683594 277.97802734 C115.77287598 277.53982666 115.03891602 277.10162598 114.28271484 276.65014648 C113.6465625 276.26044678 113.01041016 275.87074707 112.35498047 275.46923828 C109.64471422 274.50238491 108.10981017 274.92802832 105.37646484 275.76342773 C102.99778301 276.89445619 102.99778301 276.89445619 100.62255859 278.36108398 C99.70039551 278.90692139 98.77823242 279.45275879 97.828125 280.01513672 C96.83345215 280.61269775 95.8387793 281.21025879 94.81396484 281.82592773 C92.64413279 283.11103363 90.47352856 284.39483644 88.30224609 285.67749023 C87.1673877 286.34941406 86.0325293 287.02133789 84.86328125 287.71362305 C79.11207945 291.10525933 73.30406244 294.39834956 67.50146484 297.70092773 C65.13129896 299.05183457 62.76161154 300.40357884 60.39208984 301.75561523 C59.80685043 302.08950256 59.22161102 302.42338989 58.61863708 302.76739502 C49.28496868 308.09547477 39.98325512 313.47917363 30.67773438 318.85620117 C24.84943938 322.223354 19.01914744 325.58704471 13.18896484 328.95092773 C12.1079248 329.57491455 11.02688477 330.19890137 9.91308594 330.84179688 C7.92931907 331.98654391 5.94286027 333.12664496 3.953125 334.26098633 C2.3681097 335.18520313 0.80012957 336.14041097 -0.73535156 337.14477539 C-2.54931641 338.31420898 -2.54931641 338.31420898 -5.62353516 339.76342773 C-9.30006825 338.63408229 -12.50346086 336.78083609 -15.81494141 334.84936523 C-16.82766113 334.26147217 -17.84038086 333.6735791 -18.88378906 333.06787109 C-19.97353027 332.43115479 -21.06327148 331.79443848 -22.18603516 331.13842773 C-24.53804745 329.77107314 -26.89141919 328.40606402 -29.24462891 327.04077148 C-29.8509314 326.68856033 -30.45723389 326.33634918 -31.08190918 325.97346497 C-37.03357828 322.51839988 -43.01059354 319.10842455 -48.990448 315.70245361 C-59.19752427 309.88780957 -69.36740133 304.01293063 -79.50415039 298.07641602 C-88.78119545 292.65181497 -98.11110005 287.32132122 -107.44970703 282.00366211 C-108.573125 281.36364258 -109.69654297 280.72362305 -110.85400391 280.06420898 C-112.34516724 279.21596558 -112.34516724 279.21596558 -113.86645508 278.35058594 C-115.71659384 277.28552332 -117.54779844 276.18692831 -119.35913086 275.05712891 C-123.37862294 272.76070966 -125.05624733 274.45306758 -128.83837891 276.65795898 Z " fill="#F41768" transform="translate(246.62353515625,8.236572265625)"/>
<path d="M0 0 C0.87962402 0.52134521 1.75924805 1.04269043 2.66552734 1.57983398 C3.67502441 2.17094971 4.68452148 2.76206543 5.72460938 3.37109375 C7.34665283 4.33873657 7.34665283 4.33873657 9.00146484 5.32592773 C10.15171638 6.00269503 11.30260914 6.67837352 12.45410156 7.35302734 C14.25721695 8.40963976 16.05989245 9.46693587 17.86062622 10.52760315 C23.78845439 14.01808574 29.76220994 17.42562885 35.74237061 20.82540894 C45.96888735 26.64193771 56.15014921 32.53300705 66.30322266 38.47680664 C73.92552263 42.93259118 81.58177796 47.32739919 89.25146484 51.70092773 C103.72596854 59.9550841 118.1586833 68.28060146 132.58544922 76.61791992 C135.80714759 78.47945445 139.02917563 80.34041613 142.25146484 82.20092773 C143.31751953 82.81645508 144.38357422 83.43198242 145.48193359 84.06616211 C152.88445204 88.33616225 160.3017544 92.57960042 167.72525024 96.81295776 C186.70331352 107.63609152 205.54834306 118.68219984 224.37646484 129.76342773 C224.80416902 139.82092112 225.09855864 149.87302913 225.22880554 159.93902016 C225.29338504 164.61569341 225.40155989 169.28236749 225.61425781 173.95483398 C226.93867719 204.0439698 226.93867719 204.0439698 221.10314941 211.77526855 C215.53981368 216.53814866 209.36791368 219.20045065 202.50231934 221.57669067 C197.36092462 223.52863171 192.80744733 226.41003657 188.12646484 229.26342773 C181.95880245 232.81210238 175.73841665 236.13303939 169.33740234 239.24389648 C164.23418253 241.86283119 159.3468895 244.84654447 154.41943359 247.77905273 C147.26040804 252.03379345 140.0311172 256.16759526 132.81347656 260.32177734 C131.76562988 260.92513916 130.7177832 261.52850098 129.63818359 262.15014648 C128.09590088 263.03645752 128.09590088 263.03645752 126.52246094 263.94067383 C124.33600571 265.2074808 122.15713961 266.48744049 119.984375 267.77758789 C118.90333496 268.41873535 117.82229492 269.05988281 116.70849609 269.72045898 C115.73243408 270.3041626 114.75637207 270.88786621 113.75073242 271.48925781 C111.37646484 272.76342773 111.37646484 272.76342773 109.37646484 272.76342773 C109.37646484 273.42342773 109.37646484 274.08342773 109.37646484 274.76342773 C108.7081665 275.13516113 108.03986816 275.50689453 107.35131836 275.88989258 C90.56785927 285.23119081 90.56785927 285.23119081 73.95800781 294.87573242 C60.7717125 302.69052855 47.45861481 310.29222057 34.14990234 317.89624023 C33.55190826 318.23802307 32.95391418 318.57980591 32.33779907 318.9319458 C29.36026961 320.63303213 26.38098689 322.33092279 23.3984375 324.02319336 C18.07903204 327.04740863 12.78656604 330.09789134 7.56396484 333.28686523 C6.68925537 333.81505859 5.8145459 334.34325195 4.91333008 334.88745117 C3.31486768 335.85709566 1.72505261 336.84120819 0.14624023 337.8425293 C-0.89802124 338.47239746 -0.89802124 338.47239746 -1.96337891 339.11499023 C-2.55497803 339.48446777 -3.14657715 339.85394531 -3.75610352 340.23461914 C-7.2797784 341.23243321 -10.07346786 339.05930091 -13.13354492 337.41333008 C-14.01840576 336.89722168 -14.9032666 336.38111328 -15.81494141 335.84936523 C-17.334021 334.96752563 -17.334021 334.96752563 -18.88378906 334.06787109 C-19.97353027 333.43115479 -21.06327148 332.79443848 -22.18603516 332.13842773 C-24.53804745 330.77107314 -26.89141919 329.40606402 -29.24462891 328.04077148 C-29.8509314 327.68856033 -30.45723389 327.33634918 -31.08190918 326.97346497 C-37.03357828 323.51839988 -43.01059354 320.10842455 -48.990448 316.70245361 C-59.19838438 310.88731958 -69.37012948 305.01362369 -79.50634766 299.07421875 C-85.03038139 295.84278826 -90.57062771 292.64210851 -96.13134766 289.47436523 C-96.76627136 289.11256165 -97.40119507 288.75075806 -98.05535889 288.37799072 C-101.15553846 286.6123432 -104.25749309 284.84990404 -107.36181641 283.09155273 C-108.48201172 282.45475586 -109.60220703 281.81795898 -110.75634766 281.16186523 C-111.74521973 280.60160645 -112.7340918 280.04134766 -113.75292969 279.46411133 C-116.79140481 277.66397374 -119.70213671 275.74659846 -122.62353516 273.76342773 C-120.22383834 271.10776986 -117.65909327 269.4834422 -114.55712891 267.71655273 C-113.52652344 267.12608154 -112.49591797 266.53561035 -111.43408203 265.92724609 C-110.32097656 265.29568604 -109.20787109 264.66412598 -108.06103516 264.01342773 C-106.90123584 263.35061202 -105.74173506 262.68727368 -104.58251953 262.0234375 C-102.16101048 260.63732674 -99.73821582 259.25350392 -97.31445312 257.87133789 C-91.4065655 254.50016377 -85.51564147 251.09957907 -79.62353516 247.70092773 C-78.569646 247.09474609 -77.51575684 246.48856445 -76.42993164 245.86401367 C-75.4213208 245.28296875 -74.41270996 244.70192383 -73.37353516 244.10327148 C-72.40802734 243.55010254 -71.44251953 242.99693359 -70.44775391 242.42700195 C-68.55235665 241.31053956 -66.67952079 240.15493456 -64.83056641 238.96313477 C-63.95787109 238.40352051 -63.08517578 237.84390625 -62.18603516 237.26733398 C-61.42419922 236.76145752 -60.66236328 236.25558105 -59.87744141 235.734375 C-56.92847037 234.46400479 -55.65542789 234.75774903 -52.62353516 235.76342773 C-50.58258582 236.77643212 -48.57972072 237.8677618 -46.60791016 239.00952148 C-46.03893509 239.33667145 -45.46996002 239.66382141 -44.88374329 240.00088501 C-43.67009695 240.70013594 -42.45833222 241.40266128 -41.24832153 242.10818481 C-39.36240377 243.20741581 -37.47110537 244.29683544 -35.57836914 245.38427734 C-30.07165647 248.55546077 -24.5905877 251.75971962 -19.17431641 255.08374023 C-18.40055664 255.55497314 -17.62679687 256.02620605 -16.82958984 256.51171875 C-15.44043555 257.3634064 -14.05894612 258.22777632 -12.68701172 259.10693359 C-9.21161776 261.26793999 -9.21161776 261.26793999 -5.23461914 261.5300293 C-2.37914492 260.69167595 -0.17791372 259.5503266 2.37646484 258.02514648 C3.81566284 257.17436523 3.81566284 257.17436523 5.28393555 256.30639648 C6.30447021 255.6940918 7.32500488 255.08178711 8.37646484 254.45092773 C10.53614236 253.17277473 12.6963082 251.89544651 14.85693359 250.61889648 C15.94538574 249.97355957 17.03383789 249.32822266 18.15527344 248.66333008 C22.97539717 245.82035578 27.82838599 243.03650743 32.68896484 240.26342773 C33.50429688 239.79638428 34.31962891 239.32934082 35.15966797 238.84814453 C39.3021489 236.48312608 43.46488989 234.16306849 47.65771484 231.88842773 C54.01066316 228.4356056 60.29000592 224.8572246 66.56396484 221.26342773 C67.46613739 220.74702225 67.46613739 220.74702225 68.38653564 220.22018433 C72.71929204 217.73942727 77.04884121 215.25312674 81.37646484 212.76342773 C82.50101074 212.11647949 83.62555664 211.46953125 84.78417969 210.80297852 C98.62207513 202.86878927 98.62207513 202.86878927 112.12646484 194.38842773 C122.548229 187.53983986 133.54960002 181.58650805 144.39941406 175.44848633 C147.7306098 173.562976 151.05512429 171.66622814 154.37646484 169.76342773 C145.61503691 164.32364999 136.78433251 159.02318675 127.87646484 153.82592773 C126.61766765 153.08999683 125.35896214 152.3539091 124.1003418 151.61767578 C121.49431686 150.09341332 118.88790592 148.56981398 116.28125 147.04663086 C112.48145776 144.82560306 108.68437145 142.59998436 104.88818359 140.37280273 C104.28036041 140.01621078 103.67253723 139.65961884 103.04629517 139.29222107 C101.82659599 138.57664514 100.60689993 137.86106391 99.38720703 137.14547729 C90.05746916 131.67247041 80.72156701 126.21017098 71.37646484 120.76342773 C62.64011161 115.67149058 53.91188392 110.56583206 45.18896484 105.45092773 C44.58928894 105.09930573 43.98961304 104.74768372 43.37176514 104.38540649 C37.70572972 101.06295685 32.0402267 97.73959988 26.375 94.41577148 C23.05407795 92.46736526 19.73294994 90.51931046 16.41171265 88.57144165 C14.55058062 87.47973809 12.68971398 86.38758318 10.82885742 85.29541016 C8.61677485 83.99801252 6.40145738 82.70610602 4.18212891 81.42114258 C2.50393729 80.4295901 0.8421699 79.40799703 -0.78076172 78.32836914 C-3.53538887 76.52529943 -5.07060556 75.69079715 -8.38916016 76.12670898 C-13.16913194 78.54555944 -17.77383388 81.20661828 -22.37353516 83.95092773 C-24.53459149 85.22634871 -26.69606415 86.50106446 -28.85791016 87.77514648 C-29.97359375 88.43434082 -31.08927734 89.09353516 -32.23876953 89.77270508 C-37.6794554 92.97260068 -43.1517499 96.11711005 -48.62353516 99.26342773 C-56.97191403 104.07125491 -65.30602238 108.90240114 -73.62353516 113.76342773 C-83.03343846 119.2628831 -92.46824078 124.71791969 -101.91259766 130.15795898 C-110.13989387 134.89994475 -118.34714609 139.67534789 -126.54272461 144.47192383 C-131.92390412 147.61789908 -137.31772533 150.73993997 -142.72900391 153.83374023 C-143.92238852 154.51728993 -145.11574809 155.20088334 -146.30908203 155.88452148 C-148.5903639 157.19126599 -150.87454194 158.49242517 -153.16064453 159.79077148 C-154.19382812 160.38245117 -155.22701172 160.97413086 -156.29150391 161.58374023 C-157.65698364 162.36128662 -157.65698364 162.36128662 -159.05004883 163.15454102 C-161.75236869 164.84397161 -164.17462179 166.72758742 -166.62353516 168.76342773 C-165.82359131 169.23127686 -165.02364746 169.69912598 -164.19946289 170.18115234 C-134.85205429 187.35028401 -134.85205429 187.35028401 -122.62353516 194.76342773 C-123.88025654 198.53359189 -124.91915846 198.77054176 -128.34619141 200.62670898 C-129.34787354 201.17689697 -130.34955566 201.72708496 -131.3815918 202.29394531 C-132.47205811 202.88199951 -133.56252441 203.47005371 -134.68603516 204.07592773 C-136.97876356 205.33441205 -139.2704033 206.59488141 -141.56103516 207.85717773 C-142.14776505 208.17946854 -142.73449493 208.50175934 -143.33900452 208.83381653 C-149.34941888 212.14308542 -155.27068043 215.60000754 -161.18603516 219.07592773 C-163.1611343 220.22984965 -165.13639051 221.38350279 -167.11181641 222.53686523 C-169.79718203 224.10631329 -172.48048027 225.67864834 -175.15625 227.2644043 C-177.38927102 228.58730354 -179.63016673 229.8956809 -181.87353516 231.20092773 C-182.51105713 231.58482666 -183.1485791 231.96872559 -183.80541992 232.36425781 C-188.0906906 234.8326446 -188.0906906 234.8326446 -190.49169922 234.52075195 C-193.09471577 233.59604314 -195.37008385 232.37833627 -197.77978516 231.02514648 C-198.80458984 230.45086914 -199.82939453 229.8765918 -200.88525391 229.28491211 C-201.95388672 228.67969727 -203.02251953 228.07448242 -204.12353516 227.45092773 C-205.63367188 226.60691406 -205.63367188 226.60691406 -207.17431641 225.74584961 C-209.3759915 224.506559 -211.55154295 223.2201629 -213.70458984 221.89819336 C-216.65883413 220.16088574 -219.58451761 219.05852103 -222.83154297 217.97241211 C-228.88339591 215.65605537 -233.85569058 213.19889197 -237.62353516 207.76342773 C-241.0968131 197.01691604 -240.68464219 185.47735259 -240.45068359 174.30200195 C-240.35904372 169.79046934 -240.4681279 165.30877256 -240.62784958 160.80010796 C-241.42891036 134.63965364 -241.42891036 134.63965364 -235.33117676 126.82598877 C-229.69662539 122.05731711 -223.38128445 119.29763674 -216.48034668 116.82281494 C-212.84952964 115.47640441 -209.85469274 113.72975613 -206.57666016 111.67749023 C-204.67603842 110.58040824 -202.77500611 109.48403719 -200.87353516 108.38842773 C-199.81537598 107.77813721 -198.7572168 107.16784668 -197.66699219 106.5390625 C-189.03177788 101.56353426 -180.37668161 96.62324089 -171.71936035 91.68634033 C-163.66126595 87.08967335 -155.62953425 82.45028973 -147.62353516 77.76342773 C-139.02830844 72.73162084 -130.40041386 67.75953702 -121.74853516 62.82592773 C-112.65273528 57.63900347 -103.56641252 52.43661267 -94.49853516 47.20092773 C-93.43248047 46.58540039 -92.36642578 45.96987305 -91.26806641 45.33569336 C-88.05295992 43.4787258 -84.83818138 41.62119194 -81.62353516 39.76342773 C-58.76815617 26.55516094 -58.76815617 26.55516094 -48.43212891 20.65014648 C-47.83195953 20.30717529 -47.23179016 19.9642041 -46.61343384 19.61083984 C-43.62471859 17.90366263 -40.63436019 16.19946411 -37.64111328 14.50024414 C-32.33822808 11.48424689 -27.05917791 8.44443118 -21.84619141 5.27514648 C-20.97599365 4.75146484 -20.1057959 4.2277832 -19.20922852 3.68823242 C-17.6245558 2.73041655 -16.04777397 1.75935839 -14.48120117 0.7722168 C-13.78824951 0.35552734 -13.09529785 -0.06116211 -12.38134766 -0.49047852 C-11.79498535 -0.85471924 -11.20862305 -1.21895996 -10.60449219 -1.59423828 C-6.79119463 -2.8307167 -3.51648453 -1.65745339 0 0 Z " fill="#32DD87" transform="translate(246.62353515625,8.236572265625)"/>
<path d="M0 0 C15.51 0 31.02 0 47 0 C55.92264757 29.77557672 64.69444399 59.59075415 73.375 89.4375 C73.63804554 90.3419347 73.90109108 91.2463694 74.1721077 92.17821121 C77.45055558 103.45141953 80.72646043 114.72536544 84 126 C86.07120722 122.30889473 87.17656553 118.3710317 88.34741211 114.33032227 C88.68710526 113.17501511 88.68710526 113.17501511 89.03366089 111.99636841 C89.78511901 109.43741107 90.53119878 106.87691736 91.27734375 104.31640625 C91.80828832 102.50493751 92.33959091 100.69357367 92.87123108 98.88230896 C94.27919389 94.08225158 95.6827238 89.28090947 97.08520508 84.47924805 C99.2888207 76.93797166 101.49968495 69.39881419 103.709095 61.85923386 C104.5257756 59.07175864 105.34193002 56.28412972 106.15805054 53.49649048 C111.38554922 35.64837618 116.68804377 17.82318591 122 0 C137.18 0 152.36 0 168 0 C169.43942177 2.87884354 169.53427585 5.66429717 169.91749573 8.86158752 C170.04740926 9.93268348 170.04740926 9.93268348 170.17994732 11.02541775 C170.47064328 13.43002021 170.7559367 15.83523304 171.04125977 18.24047852 C171.24799347 19.96017598 171.45504239 21.67983557 171.66238403 23.39945984 C172.22581945 28.08118889 172.78442568 32.76348246 173.34190488 37.44592404 C173.80769349 41.35477767 174.2757461 45.26335884 174.74378055 49.17194408 C175.84851066 58.39815461 176.94927563 67.62483241 178.04760742 76.85180664 C179.17990619 86.36354848 180.31880675 95.87448319 181.46100575 105.38504082 C182.44150262 113.5511518 183.41787956 121.71774824 184.39097828 129.88474411 C184.97212237 134.76180697 185.55480887 139.63867271 186.14145088 144.51507759 C186.69366359 149.10681716 187.24070989 153.69914384 187.78386307 158.29196358 C187.98358713 159.97352763 188.18509923 161.65488047 188.3885746 163.33599472 C188.66714093 165.63995091 188.93909315 167.94459948 189.20948792 170.24952698 C189.36305032 171.53651772 189.51661272 172.82350847 189.67482853 174.14949894 C190.03539876 178.41917257 190 182.7151285 190 187 C174.49 187 158.98 187 143 187 C141.73312152 180.6656076 140.59013898 174.53736206 139.85498047 168.15380859 C139.75715271 167.3330484 139.65932495 166.51228821 139.55853271 165.66665649 C139.24095817 162.99435005 138.92901848 160.32141969 138.6171875 157.6484375 C138.3961938 155.77938767 138.17484408 153.9103799 137.95315552 152.04141235 C137.3742422 147.15273635 136.80012776 142.26350864 136.22705078 137.37414551 C135.6399723 132.37278238 135.0483019 127.37196269 134.45703125 122.37109375 C133.30022251 112.58125217 132.14848872 102.79082088 131 93 C129.03326034 100.84333914 127.06795154 108.68703506 125.10426235 116.53113842 C124.19149339 120.17709016 123.278308 123.82293631 122.36401367 127.46850586 C121.30250634 131.7013184 120.24266203 135.93454535 119.18359375 140.16796875 C118.92161257 141.21435831 118.92161257 141.21435831 118.65433884 142.28188705 C116.71592868 150.02932968 114.80212613 157.78176119 112.94580078 165.54931641 C112.78282659 166.23028161 112.61985239 166.91124681 112.45193958 167.61284733 C111.6784742 170.84763066 110.90976634 174.08337957 110.14756775 177.32084656 C109.74399803 179.01694817 109.74399803 179.01694817 109.33227539 180.74731445 C109.09795303 181.74181107 108.86363068 182.73630768 108.62220764 183.76094055 C108 186 108 186 107 187 C105.55710213 187.09295815 104.10970215 187.11746513 102.66381836 187.11352539 C101.7429393 187.11344986 100.82206024 187.11337433 99.87327576 187.11329651 C98.87224319 187.10813522 97.87121063 187.10297394 96.83984375 187.09765625 C95.82024063 187.0962413 94.80063751 187.09482635 93.75013733 187.09336853 C90.47922893 187.08775097 87.20838787 187.0751955 83.9375 187.0625 C81.72591244 187.05748726 79.51432382 187.05292396 77.30273438 187.04882812 C71.86846568 187.03777583 66.43423978 187.02062436 61 187 C58.99993681 181.23362212 57.2647308 175.47238437 55.82348633 169.54272461 C55.53022209 168.35569443 55.53022209 168.35569443 55.23103333 167.14468384 C54.59454789 164.56474756 53.96324445 161.9835745 53.33203125 159.40234375 C52.88823557 157.5990877 52.44411317 155.79591204 51.99967957 153.99281311 C50.83745309 149.27383626 49.67963583 144.55378859 48.52276611 139.83349609 C47.33882719 135.00617513 46.15067635 130.17989122 44.96289062 125.35351562 C42.63782807 115.90334805 40.31742715 106.45204265 38 97 C35.95891769 99.04108231 36.30071592 103.04201189 35.984375 105.8527832 C35.88829956 106.67555756 35.79222412 107.49833191 35.6932373 108.34603882 C35.37486262 111.08050915 35.06253319 113.81563766 34.75 116.55078125 C34.53007574 118.44554319 34.30969231 120.34025189 34.08886719 122.23490906 C33.50693415 127.23561611 32.92975869 132.2368595 32.35400391 137.23828125 C31.43327114 145.23405159 30.50770428 153.22925512 29.57775879 161.22395897 C29.25356959 164.01999458 28.93280669 166.81640893 28.61230469 169.61286926 C28.41354394 171.3282726 28.21465745 173.04366137 28.015625 174.7590332 C27.92728394 175.53789383 27.83894287 176.31675446 27.7479248 177.11921692 C27.35183048 180.50793957 26.82960173 183.68159309 26 187 C10.16 187 -5.68 187 -22 187 C-18.40199256 152.64047589 -14.29016546 118.34433838 -10.19693935 84.04116511 C-9.40344201 77.39023243 -8.61202437 70.73905359 -7.82116061 64.0878073 C-6.86509955 56.04731393 -5.90778055 48.00697073 -4.95000052 39.96668196 C-4.67710892 37.67521097 -4.40443303 35.3837144 -4.1317997 33.09221268 C-3.70491152 29.50481538 -3.27716429 25.91752149 -2.8487587 22.3303051 C-2.61824403 20.39856648 -2.38852276 18.46673323 -2.15882874 16.53489685 C-1.95087677 14.79583321 -1.95087677 14.79583321 -1.73872375 13.02163696 C-1.61947698 12.02161463 -1.5002302 11.02159229 -1.37736988 9.99126625 C-0.95657475 6.65578474 -0.47544727 3.32813091 0 0 Z " fill="#000000" transform="translate(910,149)"/>
<path d="M0 0 C1.74279253 0.86597191 3.45941124 1.78540594 5.15625 2.73828125 C6.18105469 3.31255859 7.20585937 3.88683594 8.26171875 4.47851562 C9.86466797 5.38633789 9.86466797 5.38633789 11.5 6.3125 C12.50675781 6.87517578 13.51351562 7.43785156 14.55078125 8.01757812 C16.75245634 9.25686873 18.92800779 10.54326483 21.08105469 11.86523438 C24.03529897 13.602542 26.96098245 14.7049067 30.20800781 15.79101562 C36.25986076 18.10737237 41.23215542 20.56453577 45 26 C48.47327794 36.7465117 48.06110703 48.28607514 47.82714844 59.46142578 C47.73550857 63.97295839 47.84459274 68.45465518 48.00431442 72.96331978 C48.80537521 99.12377409 48.80537521 99.12377409 42.7076416 106.93743896 C37.07309024 111.70611063 30.75774929 114.46579099 23.85681152 116.94061279 C20.22599448 118.28702332 17.23115758 120.03367161 13.953125 122.0859375 C12.05250327 123.18301949 10.15147096 124.27939054 8.25 125.375 C7.19184082 125.98529053 6.13368164 126.59558105 5.04345703 127.22436523 C-3.59175727 132.19989348 -12.24685355 137.14018685 -20.9041748 142.0770874 C-28.96226921 146.67375438 -36.99400091 151.313138 -45 156 C-53.59522672 161.0318069 -62.2231213 166.00389072 -70.875 170.9375 C-79.97079987 176.12442426 -89.05712263 181.32681506 -98.125 186.5625 C-99.19105469 187.17802734 -100.25710938 187.79355469 -101.35546875 188.42773438 C-104.57057523 190.28470194 -107.78535378 192.14223579 -111 194 C-125.63693176 202.45877462 -140.2860219 210.89493149 -154.97363281 219.26538086 C-160.30230534 222.30468383 -165.62343016 225.35467285 -170.91796875 228.453125 C-171.80621338 228.97229492 -172.69445801 229.49146484 -173.60961914 230.02636719 C-175.23997034 230.98150645 -176.86820549 231.94027055 -178.49389648 232.90332031 C-183.78033661 236 -183.78033661 236 -186 236 C-186.39516096 226.13462779 -186.69654287 216.27115545 -186.88080692 206.39946175 C-186.96928973 201.81423312 -187.08906017 197.2344412 -187.2824707 192.65234375 C-188.49370878 163.18278232 -188.49370878 163.18278232 -184.47897339 156.44873047 C-180.66381315 152.6870231 -176.28319238 151.05689819 -171.18728638 149.66033936 C-167.97242293 148.68977561 -165.33016589 147.00898304 -162.49609375 145.234375 C-160.47690242 144.07232581 -158.45736763 142.91087325 -156.4375 141.75 C-147.94310128 136.85913497 -139.46228856 131.94621292 -131 127 C-121.59012762 121.50049205 -112.15529401 116.04550784 -102.7109375 110.60546875 C-94.47513464 105.85857999 -86.26121432 101.07518304 -78.05444336 96.27832031 C-70.57256273 91.90860134 -63.07086098 87.57403578 -55.5625 83.25 C-45.67507143 77.55565787 -35.81874619 71.81193194 -26 66 C-29.2667128 63.28972144 -32.5330061 60.97851089 -36.2109375 58.86328125 C-37.20222656 58.2899707 -38.19351563 57.71666016 -39.21484375 57.12597656 C-40.25769531 56.5275293 -41.30054688 55.92908203 -42.375 55.3125 C-44.52892832 54.06428942 -46.68257419 52.81559131 -48.8359375 51.56640625 C-50.89056466 50.37749988 -52.94524825 49.18869103 -55 48 C-58.00644757 46.26070936 -61.00692533 44.51219044 -64 42.75 C-64.62181152 42.39204346 -65.24362305 42.03408691 -65.88427734 41.6652832 C-67.29078478 40.83271428 -68.65213522 39.924497 -70 39 C-70 38.34 -70 37.68 -70 37 C-69.42894531 36.67950684 -68.85789062 36.35901367 -68.26953125 36.02880859 C-57.04879601 29.72494958 -45.86168386 23.3694384 -34.75 16.875 C-33.2645166 16.00935425 -33.2645166 16.00935425 -31.74902344 15.1262207 C-26.9497913 12.32587902 -22.1656328 9.5043143 -17.40625 6.63671875 C-16.53387695 6.11674316 -15.66150391 5.59676758 -14.76269531 5.06103516 C-13.13090447 4.08785869 -11.5048493 3.10497562 -9.88574219 2.11083984 C-9.16547852 1.68367676 -8.44521484 1.25651367 -7.703125 0.81640625 C-7.08083008 0.43943604 -6.45853516 0.06246582 -5.81738281 -0.32592773 C-3.41231661 -1.21797338 -2.39113285 -0.89737284 0 0 Z " fill="#F41667" transform="translate(426,244)"/>
<path d="M0 0 C42.9 0 85.8 0 130 0 C130 45.84166393 130 45.84166393 117.3125 61.25 C115.99444097 62.99646072 114.68698779 64.75096839 113.3894043 66.51269531 C110.6860111 70.17163058 107.94464259 73.79666729 105.17578125 77.40625 C98.72523289 85.92277819 92.97964104 94.91312509 87.1758728 103.87634277 C84.23893993 108.40562342 81.26855662 112.91277253 78.30078125 117.421875 C77.81005127 118.17029663 77.31932129 118.91871826 76.8137207 119.68981934 C71.91642816 127.15438469 66.95272271 134.57091594 62 142 C95.66 142.495 95.66 142.495 130 143 C130 157.52 130 172.04 130 187 C87.1 187 44.2 187 0 187 C0 141.15833607 0 141.15833607 12.6875 125.75 C14.00555903 124.00353928 15.31301221 122.24903161 16.6105957 120.48730469 C19.3139889 116.82836942 22.05535741 113.20333271 24.82421875 109.59375 C31.27476711 101.07722181 37.02035896 92.08687491 42.8241272 83.12365723 C45.76106007 78.59437658 48.73144338 74.08722747 51.69921875 69.578125 C52.18994873 68.82970337 52.68067871 68.08128174 53.1862793 67.31018066 C58.08357184 59.84561531 63.04727729 52.42908406 68 45 C45.56 45 23.12 45 0 45 C0 30.15 0 15.3 0 0 Z " fill="#000000" transform="translate(550,149)"/>
<path d="M0 0 C3.9059352 1.26382897 7.32206456 2.59219194 10.8515625 4.6953125 C11.77066406 5.23800781 12.68976563 5.78070313 13.63671875 6.33984375 C14.62285156 6.92894531 15.60898438 7.51804687 16.625 8.125 C18.78313461 9.39965657 20.94201956 10.6730434 23.1015625 11.9453125 C24.22981445 12.61079102 25.35806641 13.27626953 26.52050781 13.96191406 C31.72904743 17.02186243 36.98070614 20.00631621 42.23114014 22.99359131 C51.51791707 28.27738637 60.77954625 33.60098911 70 39 C78.5951729 44.0318979 87.22312222 49.00389124 95.875 53.9375 C110.34950369 62.19165636 124.78221846 70.51717372 139.20898438 78.85449219 C142.43068275 80.71602672 145.65271079 82.57698839 148.875 84.4375 C149.94105469 85.05302734 151.00710938 85.66855469 152.10546875 86.30273438 C159.5079872 90.57273451 166.92528955 94.81617269 174.3487854 99.04953003 C186.70706712 106.09742181 199.01889301 113.22113906 211.29052734 120.41894531 C213.94296183 121.9667166 216.6044713 123.49752848 219.26953125 125.0234375 C220.4757312 125.71880615 220.4757312 125.71880615 221.70629883 126.42822266 C223.19365321 127.28533139 224.68420645 128.13692208 226.1784668 128.98193359 C227.81919684 129.93225234 229.41577843 130.95820212 231 132 C231 132.66 231 133.32 231 134 C230.34733154 134.35191406 229.69466309 134.70382813 229.0222168 135.06640625 C221.88646391 138.93373566 214.83583894 142.93264073 207.8125 147 C206.69915283 147.64356445 205.58580566 148.28712891 204.4387207 148.95019531 C185.64640943 159.33453587 185.64640943 159.33453587 167.51098633 170.73925781 C165 172 165 172 162.56176758 171.89526367 C159.45395271 170.80917226 156.84109301 169.36319638 154.01171875 167.67578125 C153.15523491 167.1693232 153.15523491 167.1693232 152.28144836 166.65263367 C150.41282701 165.54579647 148.55028489 164.42912669 146.6875 163.3125 C145.37611344 162.53372604 144.06425831 161.75574062 142.75195312 160.97851562 C140.09125736 159.40205613 137.43242628 157.82252265 134.77490234 156.24072266 C129.53641982 153.12646306 124.26873256 150.06271487 119 147 C110.26300687 141.90916516 101.53539814 136.80243332 92.8125 131.6875 C92.20717438 131.33255463 91.60184875 130.97760925 90.97817993 130.61190796 C86.0303904 127.71052227 81.08299871 124.80845842 76.13562012 121.90637207 C72.43079486 119.73318852 68.72584949 117.56020999 65.02072144 115.38754272 C63.79910423 114.67115863 62.57752623 113.95470767 61.35598755 113.2381897 C54.2713487 109.0827366 47.18180203 104.93602755 40.07836914 100.81274414 C38.11445556 99.66937276 36.15884257 98.51115836 34.223526 97.32002258 C29.06910973 94.19619227 24.08477915 91.56046285 18.4387207 89.43383789 C11.23468284 86.44739355 4.82438162 83.30360083 0 77 C-4.47070193 65.88685648 -2.44893643 51.92694442 -1.71661377 40.27575684 C-1.45858276 35.73298032 -1.3462349 31.18669637 -1.22070312 26.63867188 C-0.95430181 17.74991383 -0.52911659 8.87672868 0 0 Z " fill="#2CCD7D" transform="translate(240,6)"/>
<path d="M0 0 C5.0265253 2.69785256 9.92095208 5.53660777 14.76953125 8.54296875 C17.0196833 9.91600452 19.27080167 11.28730775 21.5234375 12.65625 C22.09879242 13.00683472 22.67414734 13.35741943 23.26693726 13.71862793 C29.19072779 17.32040527 35.19220377 20.7832046 41.20703125 24.23046875 C50.42022815 29.52083747 59.60755947 34.85207898 68.76953125 40.23046875 C69.3709494 40.58346039 69.97236755 40.93645203 70.5920105 41.30014038 C73.64892097 43.09453277 76.7054374 44.8895949 79.76171875 46.68505859 C85.3174979 49.94865617 90.87574896 53.20803791 96.43429565 56.46691895 C98.26433695 57.53992318 100.09420594 58.61322084 101.92407227 59.68652344 C108.40146078 63.48482561 114.88451883 67.27311157 121.37866211 71.04272461 C123.34257569 72.18609599 125.29818868 73.34431039 127.23350525 74.53544617 C132.38792152 77.65927648 137.3722521 80.2950059 143.01831055 82.42163086 C150.22234841 85.4080752 156.63264963 88.55186792 161.45703125 94.85546875 C165.92773318 105.96861227 163.90596768 119.92852433 163.17364502 131.57971191 C162.91561401 136.12248843 162.80326615 140.66877238 162.67773438 145.21679688 C162.41133306 154.10555492 161.98614784 162.97874007 161.45703125 171.85546875 C157.55109605 170.59163978 154.13496669 169.26327681 150.60546875 167.16015625 C149.68636719 166.61746094 148.76726562 166.07476562 147.8203125 165.515625 C146.83417969 164.92652344 145.84804687 164.33742188 144.83203125 163.73046875 C142.67389664 162.45581218 140.51501169 161.18242535 138.35546875 159.91015625 C137.2272168 159.24467773 136.09896484 158.57919922 134.93652344 157.89355469 C129.72798382 154.83360632 124.47632511 151.84915254 119.22589111 148.86187744 C109.93911418 143.57808238 100.677485 138.25447964 91.45703125 132.85546875 C82.86185835 127.82357085 74.23390903 122.85157751 65.58203125 117.91796875 C51.10752756 109.66381239 36.67481279 101.33829503 22.24804688 93.00097656 C19.0263485 91.13944203 15.80432046 89.27848036 12.58203125 87.41796875 C10.98294922 86.49467773 10.98294922 86.49467773 9.3515625 85.55273438 C0.77111792 80.60327024 -7.83040772 75.69137722 -16.43560791 70.78515625 C-25.74378352 65.47634276 -35.00920359 60.09721731 -44.25634766 54.68286133 C-52.29998021 49.97966012 -60.3990702 45.38251824 -68.54296875 40.85546875 C-68.54296875 39.86546875 -68.54296875 38.87546875 -68.54296875 37.85546875 C-66.26171875 36.17651367 -66.26171875 36.17651367 -63.04296875 34.3359375 C-62.46413437 34.00067551 -61.88529999 33.66541351 -61.28892517 33.31999207 C-59.37943312 32.21716037 -57.46136929 31.13021742 -55.54296875 30.04296875 C-54.2201462 29.28252203 -52.8979666 28.52095585 -51.57641602 27.75830078 C-48.87829954 26.20291816 -46.17705419 24.65319876 -43.47314453 23.10791016 C-37.78619176 19.85432784 -32.13498239 16.54003843 -26.48046875 13.23046875 C-23.75357988 11.64001979 -21.02666675 10.05058663 -18.28857422 8.47949219 C-16.31164892 7.31014246 -14.36577127 6.0877232 -12.44189453 4.83300781 C-4.55368151 -0.18576209 -4.55368151 -0.18576209 0 0 Z " fill="#D41057" transform="translate(78.54296875,308.14453125)"/>
<path d="M0 0 C47.19 0 94.38 0 143 0 C143 14.85 143 29.7 143 45 C127.49 45 111.98 45 96 45 C96 91.86 96 138.72 96 187 C79.5 187 63 187 46 187 C46 140.14 46 93.28 46 45 C30.82 45 15.64 45 0 45 C0 30.15 0 15.3 0 0 Z " fill="#000000" transform="translate(716,149)"/>
<path d="M0 0 C3.9059352 1.26382897 7.32206456 2.59219194 10.8515625 4.6953125 C11.77066406 5.23800781 12.68976563 5.78070313 13.63671875 6.33984375 C14.62285156 6.92894531 15.60898438 7.51804688 16.625 8.125 C18.78313461 9.39965657 20.94201956 10.6730434 23.1015625 11.9453125 C24.22981445 12.61079102 25.35806641 13.27626953 26.52050781 13.96191406 C31.72904743 17.02186243 36.98070614 20.00631621 42.23114014 22.99359131 C52.48597645 28.82817245 62.70264906 34.72394767 72.88232422 40.68896484 C78.40654861 43.92042844 83.94693482 47.12122937 89.5078125 50.2890625 C90.14273621 50.65086609 90.77765991 51.01266968 91.43182373 51.38543701 C94.5320033 53.15108454 97.63395793 54.91352369 100.73828125 56.671875 C102.41857422 57.62707031 102.41857422 57.62707031 104.1328125 58.6015625 C105.12168457 59.16182129 106.11055664 59.72208008 107.12939453 60.29931641 C110.16786966 62.09945399 113.07860156 64.01682928 116 66 C113.0566084 69.1975539 110.11220862 71.27698333 106.328125 73.3984375 C105.19987305 74.03612061 104.07162109 74.67380371 102.90917969 75.33081055 C102.3124646 75.66414398 101.71574951 75.99747742 101.10095215 76.34091187 C98.5885499 77.7445383 96.08436231 79.16252768 93.57965088 80.57981873 C92.2927416 81.30787827 91.00542548 82.03521914 89.7177124 82.76185608 C83.36342539 86.34965113 77.05169047 90.00803614 70.75 93.6875 C69.29835449 94.53223877 69.29835449 94.53223877 67.81738281 95.39404297 C66.90311523 95.92787598 65.98884766 96.46170898 65.046875 97.01171875 C64.18642578 97.51364746 63.32597656 98.01557617 62.43945312 98.53271484 C59.50905315 100.29529529 56.67089931 102.18060145 53.86035156 104.12817383 C51.38667732 105.28742458 49.70861019 105.29369222 47 105 C44.80957031 104.04467773 44.80957031 104.04467773 42.578125 102.68359375 C41.76918289 102.19370972 40.96024078 101.70382568 40.12678528 101.19909668 C38.24434454 100.04638591 36.37244839 98.87623036 34.51292419 97.68690491 C29.26065372 94.37509753 24.20427229 91.57901662 18.38989258 89.37890625 C11.20320157 86.40725289 4.81072261 83.28876566 0 77 C-4.46680297 65.88354944 -2.44906764 51.92903196 -1.71661377 40.27575684 C-1.45858276 35.73298032 -1.3462349 31.18669637 -1.22070312 26.63867188 C-0.95430181 17.74991383 -0.52911659 8.87672868 0 0 Z " fill="#D31057" transform="translate(240,138)"/>
<path d="M0 0 C2.02899029 1.00138303 4.02019204 2.08094423 5.98046875 3.2109375 C6.55219315 3.53857086 7.12391754 3.86620422 7.71296692 4.20376587 C8.92764263 4.90160407 10.14039126 5.60280596 11.35131836 6.30712891 C13.72419459 7.68712633 16.10614152 9.05094118 18.4909668 10.41017151 C19.70813931 11.1199174 20.91323049 11.85073593 22.10620117 12.60044861 C25.64111882 14.79704103 28.92372552 16.36106207 32.90039062 17.61547852 C38.47647164 19.6527663 42.85475375 21.78388368 46 27 C48.90491676 38.79697195 47.77501348 51.41832092 47.23596191 63.44958496 C47.05072276 68.02024385 46.96939265 72.59267351 46.87890625 77.16601562 C46.68671117 86.11537775 46.38019128 95.05678801 46 104 C42.0940648 102.73617103 38.67793544 101.40780806 35.1484375 99.3046875 C34.22933594 98.76199219 33.31023437 98.21929687 32.36328125 97.66015625 C31.37714844 97.07105469 30.39101562 96.48195313 29.375 95.875 C27.21686539 94.60034343 25.05798044 93.3269566 22.8984375 92.0546875 C21.77018555 91.38920898 20.64193359 90.72373047 19.47949219 90.03808594 C14.27095257 86.97813757 9.01929386 83.99368379 3.76885986 81.00640869 C-6.48597645 75.17182755 -16.70264906 69.27605233 -26.88232422 63.31103516 C-32.40654861 60.07957156 -37.94693482 56.87877063 -43.5078125 53.7109375 C-44.14273621 53.34913391 -44.77765991 52.98733032 -45.43182373 52.61456299 C-48.5320033 50.84891546 -51.63395793 49.08647631 -54.73828125 47.328125 C-56.41857422 46.37292969 -56.41857422 46.37292969 -58.1328125 45.3984375 C-59.61612061 44.55804932 -59.61612061 44.55804932 -61.12939453 43.70068359 C-64.16786966 41.90054601 -67.07860156 39.98317072 -70 38 C-67.60030318 35.34434213 -65.03555811 33.72001447 -61.93359375 31.953125 C-60.90298828 31.36265381 -59.87238281 30.77218262 -58.81054688 30.16381836 C-57.69744141 29.5322583 -56.58433594 28.90069824 -55.4375 28.25 C-54.27770068 27.58718429 -53.11819991 26.92384595 -51.95898438 26.26000977 C-49.53747533 24.87389901 -47.11468066 23.49007618 -44.69091797 22.10791016 C-38.78303034 18.73673603 -32.89210631 15.33615133 -27 11.9375 C-25.94611084 11.33131836 -24.89222168 10.72513672 -23.80639648 10.10058594 C-22.79778564 9.51954102 -21.7891748 8.93849609 -20.75 8.33984375 C-19.30173828 7.51009033 -19.30173828 7.51009033 -17.82421875 6.66357422 C-15.92882149 5.54711183 -14.05598563 4.39150682 -12.20703125 3.19970703 C-11.33433594 2.64009277 -10.46164063 2.08047852 -9.5625 1.50390625 C-8.80066406 0.99802979 -8.03882813 0.49215332 -7.25390625 -0.02905273 C-4.30630183 -1.29883423 -3.03058257 -1.00352498 0 0 Z " fill="#2CCC7C" transform="translate(194,244)"/>
<path d="M0 0 C4.79762039 2.4042797 9.34749765 5.20017743 13.90942383 8.01953125 C16.13431445 9.3756069 18.35957669 10.73107303 20.58520508 12.0859375 C21.67526855 12.75254395 22.76533203 13.41915039 23.88842773 14.10595703 C28.26506164 16.76807534 32.67562086 19.36998587 37.09692383 21.95703125 C37.81025879 22.37533203 38.52359375 22.79363281 39.25854492 23.22460938 C40.84987127 24.1573313 42.44203259 25.08862853 44.03442383 26.01953125 C42.77770244 29.78969541 41.73880052 30.02664528 38.31176758 31.8828125 C37.31008545 32.43300049 36.30840332 32.98318848 35.27636719 33.55004883 C34.18590088 34.13810303 33.09543457 34.72615723 31.97192383 35.33203125 C29.67919543 36.59051556 27.38755568 37.85098493 25.09692383 39.11328125 C24.51019394 39.43557205 23.92346405 39.75786285 23.31895447 40.08992004 C17.30854011 43.39918893 11.38727855 46.85611106 5.47192383 50.33203125 C3.49682468 51.48595316 1.52156848 52.6396063 -0.45385742 53.79296875 C-3.13922304 55.3624168 -5.82252128 56.93475185 -8.49829102 58.52050781 C-10.73131203 59.84340706 -12.97220775 61.15178442 -15.21557617 62.45703125 C-16.17185913 63.03287964 -16.17185913 63.03287964 -17.14746094 63.62036133 C-21.43195711 66.08830199 -21.43195711 66.08830199 -23.83154297 65.77905273 C-26.4506563 64.8468869 -28.73509875 63.61358853 -31.15698242 62.24609375 C-32.17606689 61.6735083 -33.19515137 61.10092285 -34.24511719 60.51098633 C-35.32849365 59.89505615 -36.41187012 59.27912598 -37.52807617 58.64453125 C-38.63530029 58.01764404 -39.74252441 57.39075684 -40.88330078 56.74487305 C-43.14891049 55.46045727 -45.4133142 54.17391188 -47.67651367 52.88525391 C-50.72254107 51.15739306 -53.77920149 49.45047168 -56.84057617 47.75 C-58.57007643 46.77793703 -60.29926329 45.80531619 -62.02807617 44.83203125 C-63.2405603 44.16518311 -63.2405603 44.16518311 -64.47753906 43.48486328 C-66.35780582 42.41463746 -68.17103856 41.2280101 -69.96557617 40.01953125 C-69.96557617 39.02953125 -69.96557617 38.03953125 -69.96557617 37.01953125 C-68.14331055 35.6159668 -68.14331055 35.6159668 -65.55932617 34.15625 C-64.59969971 33.60614258 -63.64007324 33.05603516 -62.65136719 32.48925781 C-61.60005615 31.90112305 -60.54874512 31.31298828 -59.46557617 30.70703125 C-57.25577222 29.44560769 -55.04614166 28.18388035 -52.83666992 26.921875 C-51.69697754 26.27589355 -50.55728516 25.62991211 -49.38305664 24.96435547 C-45.08802835 22.5201352 -40.81860251 20.03383996 -36.55322266 17.53833008 C-34.54353775 16.36327019 -32.53133914 15.19249848 -30.51660156 14.02612305 C-25.93739911 11.37169421 -21.39538169 8.68452428 -16.92651367 5.84765625 C-16.15621826 5.3671582 -15.38592285 4.88666016 -14.59228516 4.39160156 C-13.18388346 3.50889636 -11.78636996 2.60844397 -10.40332031 1.68652344 C-6.73415383 -0.59210665 -4.15464869 -1.59225645 0 0 Z " fill="#2CCC7C" transform="translate(79.965576171875,176.98046875)"/>
<path d="M0 0 C1.75470181 0.87761345 3.48299802 1.8088002 5.19140625 2.7734375 C6.21049072 3.34610352 7.2295752 3.91876953 8.27954102 4.50878906 C9.36291748 5.12463867 10.44629395 5.74048828 11.5625 6.375 C12.66972412 7.00116211 13.77694824 7.62732422 14.91772461 8.27246094 C17.18350884 9.55583502 19.44791257 10.84164937 21.7109375 12.12988281 C24.76061582 13.86388934 27.81691596 15.58556539 30.875 17.3046875 C32.60461314 18.28567156 34.33380687 19.26739561 36.0625 20.25 C36.87082275 20.70294434 37.67914551 21.15588867 38.51196289 21.62255859 C40.375211 22.69132841 42.19376699 23.83746624 44 25 C44 25.66 44 26.32 44 27 C43.33806641 27.3810791 42.67613281 27.7621582 41.99414062 28.15478516 C29.75296525 35.20420257 17.51918639 42.26597834 5.3125 49.375 C4.3212915 49.94951904 3.33008301 50.52403809 2.30883789 51.1159668 C-2.03777447 53.64386408 -6.35302058 56.19542553 -10.5859375 58.91015625 C-11.26825439 59.34215332 -11.95057129 59.77415039 -12.65356445 60.21923828 C-14.40556014 61.3373427 -16.14301563 62.47814574 -17.87890625 63.62109375 C-21.74339913 65.32843541 -24.127937 65.45390781 -28 64 C-32.09655558 61.90423863 -35.97644729 59.50311009 -39.875 57.0625 C-42.09973096 55.69445113 -44.32499401 54.32726716 -46.55078125 52.9609375 C-47.64084473 52.28772461 -48.7309082 51.61451172 -49.85400391 50.92089844 C-54.91492792 47.83077349 -60.05671419 44.87914566 -65.22412109 41.97094727 C-66.84862051 41.0349652 -68.4304657 40.02548665 -70 39 C-70 38.34 -70 37.68 -70 37 C-69.42894531 36.67950684 -68.85789062 36.35901367 -68.26953125 36.02880859 C-57.04879601 29.72494958 -45.86168386 23.3694384 -34.75 16.875 C-33.75967773 16.29790283 -32.76935547 15.72080566 -31.74902344 15.1262207 C-26.9497913 12.32587902 -22.1656328 9.5043143 -17.40625 6.63671875 C-16.53387695 6.11674316 -15.66150391 5.59676758 -14.76269531 5.06103516 C-13.13090447 4.08785869 -11.5048493 3.10497562 -9.88574219 2.11083984 C-9.16547852 1.68367676 -8.44521484 1.25651367 -7.703125 0.81640625 C-7.08083008 0.43943604 -6.45853516 0.06246582 -5.81738281 -0.32592773 C-3.41091771 -1.21849223 -2.392438 -0.89943167 0 0 Z " fill="#D31057" transform="translate(426,244)"/>
</svg>
